<svg width="50" height="50" viewBox="0 0 50 50" fill="none" xmlns="http://www.w3.org/2000/svg">
<path d="M44.9129 16.2487H44.7383L43.9418 13.0627H40.9305V9.87673H49.9999L47.8757 3.50477H45.7094V2.70827C45.7094 1.39063 44.6372 0.318787 43.3199 0.318787H6.68115C5.36351 0.318787 4.29166 1.39063 4.29166 2.70827V3.50477H2.12425L0 9.87673H9.07064V13.0627H6.05889L5.26239 16.2487H5.08816C3.77052 16.2487 2.69867 17.3205 2.69867 18.6382V20.2312C2.69867 21.268 3.36683 22.1442 4.29166 22.474V45.719C4.29166 47.9148 6.07794 49.7015 8.27414 49.7015H17.8321C20.0279 49.7015 21.8146 47.9148 21.8146 45.719V22.474C22.739 22.1442 23.4076 21.268 23.4076 20.2312V18.6382C23.4076 17.3205 22.3353 16.2487 21.0181 16.2487H20.8434L20.0469 13.0627H17.0356V9.87673H32.9655V13.0627H29.9538L29.1573 16.2487H28.983C27.6654 16.2487 26.5935 17.3205 26.5935 18.6382V20.2312C26.5935 21.268 27.2617 22.1442 28.1865 22.474V45.719C28.1865 47.9148 29.9728 49.7015 32.169 49.7015H41.7269C43.9228 49.7015 45.7094 47.9148 45.7094 45.719V22.474C46.6339 22.1442 47.3024 21.268 47.3024 20.2312V18.6382C47.3024 17.3205 46.2302 16.2487 44.9129 16.2487ZM5.88465 2.70827C5.88465 2.26919 6.24207 1.91178 6.68115 1.91178H43.3199C43.7586 1.91178 44.1164 2.26919 44.1164 2.70827V3.50477H5.88465V2.70827ZM3.27271 5.09776H46.7288L47.7905 8.28374H2.2102L3.27271 5.09776ZM5.88465 45.719V22.6207H12.2566V48.1085H8.27414C6.9565 48.1085 5.88465 47.0363 5.88465 45.719ZM17.8321 48.1085H17.0356V25.8066H15.4426V48.1085H13.8496V22.6207H15.4426V24.2137H17.0356V22.6207H20.2216V45.719C20.2216 47.0363 19.1493 48.1085 17.8321 48.1085ZM21.8146 18.6382V20.2312C21.8146 20.6699 21.4568 21.0277 21.0181 21.0277H5.08816C4.64908 21.0277 4.29166 20.6699 4.29166 20.2312V18.6382C4.29166 18.1991 4.64908 17.8417 5.08816 17.8417H21.0181C21.4568 17.8417 21.8146 18.1991 21.8146 18.6382ZM19.2011 16.2487H6.90478L7.30302 14.6557H18.8028L19.2011 16.2487ZM15.4426 13.0627H10.6636V9.87673H15.4426V13.0627ZM34.5585 9.87673H39.3375V13.0627H34.5585V9.87673ZM31.1979 14.6557H42.6977L43.0959 16.2487H30.7996L31.1979 14.6557ZM29.7795 45.719V22.6207H32.9655V24.2137H34.5585V22.6207H36.1515V48.1085H34.5585V25.8066H32.9655V48.1085H32.169C30.8514 48.1085 29.7795 47.0363 29.7795 45.719ZM41.7269 48.1085H37.7445V22.6207H44.1164V45.719C44.1164 47.0363 43.0442 48.1085 41.7269 48.1085ZM45.7094 20.2312C45.7094 20.6699 45.3516 21.0277 44.9129 21.0277H28.983C28.5439 21.0277 28.1865 20.6699 28.1865 20.2312V18.6382C28.1865 18.1991 28.5439 17.8417 28.983 17.8417H44.9129C45.3516 17.8417 45.7094 18.1991 45.7094 18.6382V20.2312Z" fill="#F5B5C9"/>
</svg>
