<svg width="30" height="30" viewBox="0 0 30 30" fill="none" xmlns="http://www.w3.org/2000/svg">
<path d="M8.14062 7.03125C7.81719 7.03125 7.55469 7.29375 7.55469 7.61719C7.55469 7.94063 7.81719 8.20312 8.14062 8.20312C8.46406 8.20312 8.72656 7.94063 8.72656 7.61719C8.72656 7.29375 8.46406 7.03125 8.14062 7.03125Z" fill="#9FA1A5"/>
<path d="M22.2031 4.6875C22.5267 4.6875 22.7891 4.42512 22.7891 4.10156C22.7891 3.77801 22.5267 3.51562 22.2031 3.51562C21.6461 3.51562 19.9068 3.51562 19.1226 3.51562C19.2183 3.05432 19.2734 2.63631 19.2734 2.34375C19.2734 1.05141 18.222 0 16.9297 0C15.6373 0 14.5859 1.05141 14.5859 2.34375C14.5859 2.63631 14.6411 3.05432 14.7368 3.51562C13.3844 3.51562 7.15883 3.51562 5.79688 3.51562C5.47326 3.51562 5.21094 3.77801 5.21094 4.10156C5.21094 4.42512 5.47326 4.68164 5.79688 4.68164H6.15582C5.30193 7.31461 5.21246 7.40338 5.21111 7.61344C5.21111 7.61467 5.21094 7.6159 5.21094 7.61719V27.0703C5.21094 27.2985 5.28324 27.317 5.7967 28.3807C6.29645 29.3796 7.30057 30 8.41719 30H19.5828C20.6994 30 21.7036 29.3796 22.2035 28.3804C22.7407 27.3041 22.7891 27.2672 22.7891 27.0703V7.61719C22.7891 7.39799 22.6877 7.30178 21.8442 4.6875H22.2031ZM16.9297 1.17188C17.5759 1.17188 18.1016 1.69758 18.1016 2.34375C18.1016 2.55803 18.0447 2.99004 17.9227 3.51562H15.9368C15.8147 2.99004 15.7578 2.55803 15.7578 2.34375C15.7578 1.69758 16.2835 1.17188 16.9297 1.17188ZM6.38281 15.5859H8.72656V19.1016H6.38281V15.5859ZM21.1553 27.8563C20.8554 28.4558 20.2528 28.8281 19.5828 28.8281H8.41719C7.74717 28.8281 7.14459 28.4558 6.84482 27.8566L6.74469 27.6562H21.2553L21.1553 27.8563ZM21.6172 26.4844H6.38281V20.2734H8.75932C9.05176 22.9065 11.2903 24.9609 14 24.9609C16.7097 24.9609 18.9483 22.9065 19.2407 20.2734H21.6172V26.4844ZM9.89844 19.6875V15C9.89844 12.7384 11.7384 10.8984 14 10.8984C16.2624 10.8984 18.1016 12.7293 18.1016 15V19.6875C18.1016 21.9491 16.2616 23.7891 14 23.7891C11.7384 23.7891 9.89844 21.9491 9.89844 19.6875ZM21.6172 19.1016H19.2734V15.5859H21.6172V19.1016ZM21.6172 14.4141H19.2403C18.951 11.783 16.7233 9.72656 14 9.72656C11.2903 9.72656 9.0517 11.781 8.75932 14.4141H6.38281V7.71229L7.39109 4.6875C9.4168 4.6875 18.535 4.6875 20.609 4.6875L21.3902 7.03125H10.4844C10.1608 7.03125 9.89844 7.29363 9.89844 7.61719C9.89844 7.94074 10.1608 8.20312 10.4844 8.20312H21.6172V14.4141Z" fill="#9FA1A5"/>
<path d="M14 14.4141C12.3846 14.4141 11.0703 15.7283 11.0703 17.3438C11.0703 18.9592 12.3846 20.2734 14 20.2734C15.6154 20.2734 16.9297 18.9592 16.9297 17.3438C16.9297 15.7283 15.6154 14.4141 14 14.4141ZM14 19.1016C13.0307 19.1016 12.2422 18.313 12.2422 17.3438C12.2422 16.3745 13.0307 15.5859 14 15.5859C14.9693 15.5859 15.7578 16.3745 15.7578 17.3438C15.7578 18.313 14.9693 19.1016 14 19.1016Z" fill="#9FA1A5"/>
</svg>
