<svg width="30" height="30" viewBox="0 0 30 30" fill="none" xmlns="http://www.w3.org/2000/svg">
<g clip-path="url(#clip0)">
<path d="M23.1249 11.8745H5.62443C4.59064 11.8745 3.74939 12.7157 3.74939 13.7495V14.9995C3.74939 19.4596 6.2132 23.5047 10.1783 25.556C10.4845 25.7135 10.862 25.5948 11.0208 25.2873C11.1783 24.981 11.0595 24.6035 10.752 24.4447C7.20445 22.6097 4.9994 18.9909 4.9994 14.9995V13.7495C4.9994 13.4045 5.27943 13.1244 5.62443 13.1244H23.1249C23.4699 13.1244 23.7499 13.4045 23.7499 13.7495V14.9995C23.7499 18.9908 21.5448 22.6096 17.996 24.4434C17.6885 24.6022 17.5698 24.9797 17.7273 25.286C17.8385 25.501 18.0573 25.6247 18.2835 25.6247C18.381 25.6247 18.4785 25.6022 18.5697 25.5547C22.5361 23.5046 24.9999 19.4608 24.9999 14.9994V13.7494C24.9999 12.7157 24.1586 11.8745 23.1249 11.8745Z" fill="#D4B53D"/>
<path d="M28.7037 24.7598C28.6062 24.5261 28.3787 24.3735 28.1262 24.3735H0.625575C0.373089 24.3735 0.145564 24.5261 0.0480619 24.7598C-0.0494404 24.9935 0.00429136 25.2623 0.183065 25.4411L1.58437 26.8436C2.41191 27.6699 3.50939 28.1249 4.67819 28.1249H24.0711C25.2399 28.1249 26.3387 27.6699 27.1675 26.8436L28.5688 25.4411C28.7475 25.2623 28.8012 24.9935 28.7037 24.7598ZM26.2824 25.9598C25.6925 26.5498 24.9062 26.8748 24.0724 26.8748H4.67819C3.84444 26.8748 3.05815 26.5498 2.46816 25.9598L2.13317 25.6248H26.6174L26.2824 25.9598Z" fill="#D4B53D"/>
<path d="M28.7912 14.8258C27.1074 13.7433 24.4173 14.9184 24.116 15.0546C23.8023 15.1983 23.6623 15.5684 23.806 15.8834C23.9497 16.1984 24.3185 16.3371 24.6348 16.1934C25.2373 15.9196 27.1698 15.2709 28.1149 15.8796C28.5411 16.1534 28.7499 16.6846 28.7499 17.4996C28.7499 20.0022 23.7022 21.5148 21.7534 21.8872L21.3109 21.9747C20.9722 22.041 20.7521 22.3697 20.8184 22.7085C20.8772 23.006 21.1384 23.2123 21.4309 23.2123C21.4709 23.2123 21.5109 23.2085 21.5521 23.1998L21.9909 23.1135C22.3184 23.051 29.9999 21.5448 29.9999 17.4996C29.9999 16.2421 29.5925 15.3433 28.7912 14.8258Z" fill="#D4B53D"/>
<path d="M19.241 6.63943C20.2573 5.36938 20.2573 3.3806 19.241 2.11055C19.0247 1.84054 18.6335 1.79554 18.3622 2.01305C18.0922 2.22932 18.0485 2.62179 18.2647 2.8918C18.9085 3.69555 18.9085 5.05437 18.2635 5.86064C17.246 7.13069 17.246 9.11946 18.2635 10.3895C18.3872 10.5445 18.5685 10.6245 18.7522 10.6245C18.8885 10.6245 19.0272 10.5795 19.1423 10.487C19.4123 10.2707 19.456 9.87698 19.2398 9.60827C18.5947 8.80446 18.5947 7.44569 19.241 6.63943Z" fill="#D4B53D"/>
<path d="M15.4859 6.63946C16.5034 5.36941 16.5034 3.38063 15.4859 2.11058C15.2709 1.84058 14.8772 1.79681 14.6072 2.01308C14.3371 2.22935 14.2934 2.62311 14.5097 2.89183C15.1547 3.69558 15.1547 5.0544 14.5084 5.86067C13.4921 7.13072 13.4921 9.1195 14.5084 10.3895C14.6322 10.5445 14.8134 10.6246 14.9972 10.6246C15.1334 10.6246 15.2709 10.5796 15.3872 10.487C15.6572 10.2708 15.7009 9.8783 15.4847 9.6083C14.8409 8.80449 14.8409 7.44573 15.4859 6.63946Z" fill="#D4B53D"/>
<path d="M11.7409 6.64065C12.7571 5.3706 12.7571 3.38182 11.7409 2.11177C11.5259 1.84176 11.1333 1.79676 10.8621 2.01427C10.5933 2.22925 10.5496 2.62301 10.7646 2.89179C11.4084 3.69554 11.4084 5.05436 10.7634 5.86063C9.74587 7.13068 9.74587 9.11945 10.7634 10.3895C10.8871 10.5445 11.0684 10.6245 11.2521 10.6245C11.3884 10.6245 11.5271 10.5795 11.6421 10.4883C11.9121 10.272 11.9559 9.87826 11.7396 9.60954C11.0946 8.80445 11.0946 7.44691 11.7409 6.64065Z" fill="#D4B53D"/>
</g>
<defs>
<clipPath id="clip0">
<rect width="30" height="30" fill="white"/>
</clipPath>
</defs>
</svg>
