<svg width="30" height="30" viewBox="0 0 30 30" fill="none" xmlns="http://www.w3.org/2000/svg">
<path d="M15 6.21094C14.6766 6.21094 14.4141 6.47344 14.4141 6.79687C14.4141 7.12031 14.6766 7.38281 15 7.38281C15.3234 7.38281 15.5859 7.12031 15.5859 6.79687C15.5859 6.47344 15.3234 6.21094 15 6.21094Z" fill="#5EC4E1"/>
<path d="M29.414 25.1367H26.8174C28.0941 24.4283 29.1585 23.4702 29.9014 22.3563C30.0214 22.1766 30.0326 21.9454 29.9306 21.7548C29.8287 21.5642 29.6301 21.4453 29.414 21.4453H28.342C29.4426 19.286 29.9999 17.1219 29.9999 15C29.9999 6.91106 23.0942 0 15 0C6.91915 0 0 6.89659 0 15C0 17.1219 0.557343 19.2859 1.65791 21.4453H0.585936C0.369843 21.4453 0.171269 21.5642 0.0693163 21.7548C-0.0325781 21.9453 -0.0214453 22.1765 0.0984373 22.3563C0.85617 23.4927 1.9381 24.4491 3.17402 25.1367H0.585936C0.369843 25.1367 0.171269 25.2556 0.0693163 25.4462C-0.0325781 25.6367 -0.0214453 25.8679 0.0984373 26.0477C1.67466 28.4116 4.65175 29.9999 7.50643 29.9999H22.4935C25.3219 29.9999 28.3364 28.3941 29.9015 26.0477C30.0214 25.868 30.0326 25.6368 29.9307 25.4462C29.8287 25.2556 29.6301 25.1367 29.414 25.1367ZM1.17187 15C1.17187 7.50438 7.50438 1.17187 15 1.17187C22.4956 1.17187 28.8281 7.50438 28.8281 15C28.8281 17.1068 28.2179 19.2736 27.0148 21.4453H24.0842C25.5256 19.4832 26.3085 17.234 26.3085 15C26.3085 8.87008 21.1299 3.6914 15 3.6914C8.87008 3.6914 3.6914 8.87008 3.6914 15C3.6914 17.234 4.47433 19.4832 5.91585 21.4453H2.98517C1.78201 19.2736 1.17187 17.1068 1.17187 15ZM22.5888 21.4453H7.4111C5.76626 19.5284 4.86327 17.249 4.86327 15C4.86327 9.5053 9.50535 4.86327 15 4.86327C20.4946 4.86327 25.1367 9.5053 25.1367 15C25.1367 17.249 24.2337 19.5284 22.5888 21.4453ZM1.80533 22.6113C3.01482 22.6113 26.7188 22.6113 28.1974 22.6113C26.7938 24.0932 24.6128 25.1367 22.4935 25.1367H7.50643C5.45226 25.1367 3.25329 24.1317 1.80533 22.6113ZM22.4935 28.8281H7.50643C5.45226 28.8281 3.25329 27.8231 1.80533 26.3027C2.68394 26.3027 27.5491 26.3027 28.1974 26.3027C26.7938 27.7846 24.6128 28.8281 22.4935 28.8281Z" fill="#5EC4E1"/>
<path d="M17.4862 6.56897C17.1756 6.47716 16.8499 6.65464 16.7582 6.96495C16.6667 7.27526 16.8439 7.60116 17.1543 7.6928C20.3707 8.64271 22.6171 11.6475 22.6171 15C22.6171 15.3236 22.8795 15.5859 23.203 15.5859C23.5266 15.5859 23.789 15.3236 23.789 15C23.789 10.9787 21.0889 7.63286 17.4862 6.56897Z" fill="#5EC4E1"/>
</svg>
