<svg width="30" height="26" viewBox="0 0 30 26" fill="none" xmlns="http://www.w3.org/2000/svg">
<path d="M28.2422 0.109375C25.5778 0.109375 22.9035 0.109375 20.2365 0.109375C19.7132 0.109375 19.2209 0.34 18.8858 0.74207L13.8236 6.81666L11.999 4.34049C11.6691 3.89248 11.1401 3.625 10.5838 3.625H1.75781C0.782813 3.625 0 4.41936 0 5.38281V24.1328C0 25.1021 0.788555 25.8906 1.75781 25.8906C5.19955 25.8906 21.1969 25.8906 24.3996 25.8906C25.8398 25.8906 26.6695 24.2499 25.8146 23.0903L24.4241 21.2031H28.2422C29.2114 21.2031 30 20.4146 30 19.4453V1.86719C30 0.880879 29.1936 0.109375 28.2422 0.109375ZM28.1631 1.28125L18.388 13.0112L17.555 11.8807L26.3879 1.28125H28.1631ZM24.8624 1.28125L16.8391 10.9092L16.006 9.77863L23.0868 1.28125H24.8624ZM19.7861 1.4923C19.8979 1.35818 20.062 1.28125 20.2365 1.28125H21.5613L15.2902 8.80703L14.5394 7.78814L19.7861 1.4923ZM1.75781 24.7188C1.43473 24.7188 1.17188 24.4559 1.17188 24.1328V5.99412L14.9689 24.7188H1.75781ZM16.4246 24.7188L1.7458 4.79752C1.74979 4.79746 1.75377 4.79688 1.75781 4.79688H3.67307L18.3521 24.7188H16.4246ZM19.8078 24.7188L5.12871 4.79688H7.36441L22.0436 24.7188H19.8078ZM24.8713 23.7856C25.1563 24.1722 24.8815 24.7188 24.3996 24.7188H23.4993L8.82012 4.79688H10.5838C10.7691 4.79688 10.9454 4.886 11.0555 5.03553L24.8713 23.7856ZM28.8281 19.4453C28.8281 19.7684 28.5653 20.0312 28.2422 20.0312H23.5606L19.1038 13.9828L28.8281 2.31379V19.4453Z" fill="#606192"/>
</svg>
