<svg width="23" height="31" viewBox="0 0 23 31" fill="none" xmlns="http://www.w3.org/2000/svg">
<path fill-rule="evenodd" clip-rule="evenodd" d="M0.72114 11.8059C-0.226486 10.1363 -0.240954 8.17418 0.682319 6.55745C0.684158 6.55422 0.686032 6.55089 0.687935 6.54751C0.69626 6.53272 0.705164 6.51691 0.714388 6.50336L5.10891 0.268515C5.22417 0.10256 5.4108 0.0026925 5.61094 0H5.61142C5.81204 0.00416113 5.99867 0.105742 6.11345 0.273166L10.508 6.53249C10.5146 6.54205 10.521 6.5547 10.5272 6.5669C10.5312 6.57469 10.5351 6.5823 10.5388 6.58879C10.5986 6.68547 10.6498 6.78705 10.6922 6.89279H21.8452C22.0215 6.88765 22.1913 6.96084 22.3099 7.09326C22.4268 7.22397 22.4809 7.40045 22.457 7.57522L19.781 27.7322C19.5709 29.2858 18.2669 30.446 16.7223 30.4536H10.4221C8.87748 30.446 7.57346 29.286 7.36344 27.7325L5.63385 14.7003C5.62999 14.7003 5.62619 14.7004 5.62239 14.7005C5.61859 14.7007 5.6148 14.7008 5.61094 14.7008C3.5891 14.6895 1.72615 13.5866 0.72114 11.8059ZM16.7223 29.2004C17.6494 29.1945 18.4316 28.4976 18.5575 27.5648L19.8415 17.8914C19.0706 17.7821 18.5673 17.5375 18.111 17.3157L18.0974 17.3091L18.0967 17.3087C17.5265 17.032 17.0341 16.7931 15.9852 16.7931C14.9361 16.7931 14.4434 17.0325 13.8732 17.3095L13.8731 17.3096L13.8717 17.3102C13.2553 17.6094 12.5563 17.9487 11.228 17.9487C9.89889 17.9487 9.19986 17.6102 8.5833 17.3108C8.1553 17.103 7.77119 16.9182 7.16307 16.8381L8.58692 27.5648C8.71279 28.4976 9.49476 29.1945 10.4221 29.2004H16.7223ZM20.0064 16.6617L21.1392 8.14603H11.1199C11.3673 9.3366 11.1626 10.6549 10.5058 11.8154C9.71828 13.203 8.39763 14.1956 6.86021 14.5552L6.99356 15.5595C7.99399 15.6348 8.58571 15.9217 9.11595 16.1792L9.11941 16.1809C9.68845 16.4568 10.1807 16.6954 11.228 16.6954C12.2771 16.6954 12.7697 16.4573 13.3402 16.1804C13.9568 15.8808 14.6556 15.5435 15.9849 15.5435C17.3066 15.5435 18.0052 15.8828 18.6191 16.1809L18.6298 16.1861C18.6436 16.1928 18.6574 16.1994 18.6711 16.2061C19.0726 16.4012 19.4431 16.5812 20.0064 16.6617ZM5.60997 1.71732L1.7358 7.21124C1.04087 8.44832 1.0604 9.89321 1.79053 11.1802C2.56793 12.5818 4.02987 13.4485 5.61431 13.4473C7.19875 13.4463 8.6595 12.5776 9.4352 11.1751C10.1612 9.89223 10.1793 8.45542 9.4856 7.22838L5.60997 1.71732ZM8.86133 9.03434C8.85916 10.8746 7.39022 12.3657 5.57743 12.3682C5.23647 12.3682 4.96014 12.0874 4.96014 11.7415C4.96014 11.3954 5.23647 11.1149 5.57743 11.1149C6.70855 11.1132 7.62531 10.1828 7.62676 9.03434C7.62676 8.68823 7.90309 8.40771 8.24404 8.40771C8.585 8.40771 8.86133 8.68823 8.86133 9.03434Z" fill="#F5B5C9"/>
</svg>
