<svg width="78" height="32" viewBox="0 0 78 32" fill="none" xmlns="http://www.w3.org/2000/svg">
<path d="M78 16.6323H3.03839V31.7375H78V16.6323Z" fill="#C8482C"/>
<path d="M3.03839 15.3581V0.25293H8.03133C13.0372 0.25293 15.54 2.70733 15.54 7.61578C15.54 9.96819 14.8573 11.8466 13.4911 13.2513C12.1249 14.6561 10.3049 15.3581 8.03133 15.3581H3.03839ZM6.21304 3.02344V12.5984H7.78567C9.16163 12.5984 10.2412 12.1559 11.0244 11.2713C11.8068 10.3866 12.1988 9.18214 12.1988 7.65813C12.1988 6.2185 11.8107 5.08651 11.0342 4.26115C10.2576 3.43578 9.16828 3.02344 7.76608 3.02344H6.21304Z" fill="white"/>
<path d="M21.054 15.3581H17.8793V0.25293H21.054V15.3581Z" fill="white"/>
<path d="M35.588 14.3466C34.2121 15.1963 32.5019 15.6212 30.4576 15.6212C28.1907 15.6212 26.4035 14.949 25.0965 13.6039C23.7895 12.2594 23.1354 10.4071 23.1354 8.0476C23.1354 5.67418 23.8497 3.73953 25.2781 2.24365C26.7066 0.747771 28.6067 0 30.9786 0C32.4725 0 33.7897 0.221248 34.9295 0.663744V3.85541C33.8418 3.18116 32.5117 2.84404 30.9391 2.84404C29.6223 2.84404 28.5494 3.30212 27.7203 4.21896C26.891 5.13512 26.477 6.35893 26.477 7.88971C26.477 9.4415 26.849 10.6426 27.5926 11.492C28.3359 12.3418 29.3402 12.7667 30.6049 12.7667C31.365 12.7667 31.9679 12.6508 32.4134 12.419V9.46962H29.5925V6.75196H35.5877V14.3466H35.588Z" fill="white"/>
<path d="M41.7424 15.3581H38.5677V0.25293H41.7424V15.3581Z" fill="white"/>
<path d="M54.8435 3.02344H50.8237V15.3581H47.6393V3.02344H43.6391V0.25293H54.8435V3.02344Z" fill="white"/>
<path d="M67.7286 15.3581H64.2691L63.2665 11.9981H58.254L57.2612 15.3581H53.8213L58.9518 0.25293H62.7161L67.7286 15.3581ZM62.539 9.38543L61.0255 4.30824C60.9142 3.9291 60.8355 3.4761 60.7896 2.94958H60.7109C60.678 3.39208 60.5961 3.83085 60.4652 4.26623L58.9322 9.38543H62.539Z" fill="white"/>
<path d="M77.881 15.3581H69.4877V0.25293H72.6624V12.5981H77.8814V15.3581H77.881Z" fill="white"/>
<path d="M18.8049 31.175V27.8728C19.3634 28.375 19.9699 28.7517 20.6246 29.0028C21.2794 29.2539 21.9404 29.3792 22.6081 29.3792C22.9997 29.3792 23.3412 29.3413 23.6337 29.2657C23.9259 29.1902 24.1695 29.0855 24.3655 28.951C24.5611 28.8171 24.707 28.6589 24.8032 28.4763C24.8995 28.2943 24.9478 28.0965 24.9478 27.883C24.9478 27.594 24.8708 27.3362 24.7168 27.1091C24.5628 26.8821 24.3525 26.6724 24.0862 26.4796C23.8199 26.2868 23.5036 26.1012 23.1375 25.9223C22.7715 25.7434 22.3768 25.5611 21.9533 25.3754C20.8748 24.894 20.0714 24.3058 19.5416 23.6108C19.0121 22.9159 18.7472 22.0767 18.7472 21.0931C18.7472 20.3226 18.8917 19.6606 19.1804 19.1066C19.4691 18.5533 19.8624 18.0973 20.3601 17.7395C20.8573 17.3817 21.4333 17.1188 22.0881 16.9504C22.7428 16.782 23.436 16.6973 24.1678 16.6973C24.8865 16.6973 25.5238 16.744 26.0791 16.8365C26.6341 16.9297 27.1461 17.0723 27.6147 17.2648V20.3501C27.3837 20.1779 27.1317 20.0268 26.8591 19.896C26.5858 19.7653 26.3052 19.6572 26.0165 19.5711C25.7278 19.4851 25.4401 19.4214 25.1549 19.38C24.8694 19.3387 24.5978 19.318 24.3413 19.318C23.9882 19.318 23.6673 19.3539 23.3786 19.4264C23.0899 19.4983 22.846 19.5999 22.6469 19.7307C22.4478 19.8615 22.2938 20.018 22.1846 20.2C22.0755 20.3826 22.0209 20.5872 22.0209 20.8142C22.0209 21.0619 22.0818 21.2838 22.2039 21.4797C22.326 21.6762 22.4992 21.8619 22.7239 22.037C22.9486 22.2129 23.2215 22.3847 23.5424 22.5531C23.8633 22.7221 24.2258 22.8956 24.6304 23.0745C25.1822 23.3222 25.6784 23.5851 26.118 23.8639C26.5571 24.1421 26.9347 24.4572 27.249 24.8079C27.5636 25.1586 27.8043 25.5597 27.9713 26.0104C28.1382 26.461 28.2215 26.9855 28.2215 27.5838C28.2215 28.4092 28.0755 29.1027 27.7837 29.6632C27.4911 30.2239 27.095 30.6779 26.5946 31.0252C26.0938 31.3725 25.5115 31.6219 24.8473 31.773C24.1832 31.9244 23.4815 32 22.7435 32C21.9862 32 21.2657 31.9312 20.5823 31.7936C19.8978 31.6564 19.3057 31.4501 18.8049 31.175Z" fill="white"/>
<path d="M39.19 31.7372H30.7375V16.6323H38.8656V19.4025H33.9122V22.7626H38.5216V25.5222H33.9122V28.9772H39.19V31.7372Z" fill="white"/>
<path d="M53.2838 16.6322L48.4287 31.737H44.8317L40.0354 16.6318H43.4557L46.3945 27.1443C46.5516 27.7132 46.6468 28.2153 46.6794 28.6507H46.7385C46.7843 28.1801 46.8858 27.6641 47.0433 27.1023L49.9621 16.6318H53.2838V16.6322Z" fill="white"/>
<path d="M63.4264 31.7372H54.974V16.6323H63.102V19.4025H58.1487V22.7626H62.7581V25.5222H58.1487V28.9772H63.4264V31.7372Z" fill="white"/>
<path d="M77.9857 31.7372H74.3393L72.1476 27.8502C71.9838 27.5555 71.8267 27.2919 71.6759 27.0601C71.5251 26.8284 71.3725 26.6302 71.2192 26.4648C71.0653 26.3002 70.9046 26.1738 70.7377 26.0857C70.5708 25.9983 70.3885 25.9542 70.1922 25.9542H69.3373V31.7372H66.1626V16.6323H71.1947C74.615 16.6323 76.3252 18.0018 76.3252 20.7405C76.3252 21.267 76.25 21.7536 76.0991 22.1994C75.9483 22.6453 75.7356 23.0472 75.4601 23.4053C75.1851 23.7634 74.8523 24.0724 74.4628 24.3323C74.073 24.5922 73.6387 24.7958 73.1603 24.9432V24.9852C73.37 25.0553 73.5733 25.1699 73.7696 25.3274C73.9663 25.4856 74.1563 25.67 74.3396 25.8807C74.523 26.0914 74.6987 26.3178 74.8656 26.5604C75.0325 26.8023 75.1847 27.0395 75.3223 27.2712L77.9857 31.7372ZM69.3369 19.1813V23.3843H70.7129C71.3942 23.3843 71.9415 23.1735 72.3541 22.7524C72.7733 22.3241 72.9829 21.7939 72.9829 21.162C72.9829 19.8416 72.246 19.1816 70.7717 19.1816H69.3369V19.1813Z" fill="white"/>
<path fill-rule="evenodd" clip-rule="evenodd" d="M5.27525 24.1848L0 18.5308L2.0371 16.749L8.97474 24.1849L2.03708 31.6203L2.36113e-05 29.8386L5.27525 24.1848Z" fill="white"/>
<path fill-rule="evenodd" clip-rule="evenodd" d="M14.0849 24.1848L8.80939 18.5308L10.8464 16.749L17.7845 24.1849L10.8464 31.6204L8.80941 29.8386L14.0849 24.1848Z" fill="white"/>
</svg>
