<svg width="46" height="52" viewBox="0 0 46 52" fill="none" xmlns="http://www.w3.org/2000/svg">
<path fill-rule="evenodd" clip-rule="evenodd" d="M36.5361 16.0613L36.5187 16.0423L8.00444 0L8.00366 5.08516L0 0.835646V33.0342C0 43.4652 8.4386 51.9216 18.8485 51.9216C20.9637 51.9216 22.995 51.5672 24.8929 50.9237C25.6831 51.0256 26.4865 51.084 27.3046 51.084C37.6298 51.084 46 42.6966 46 32.35C46 25.3689 42.1864 19.2838 36.5361 16.0613ZM18.8485 49.049C10.0222 49.049 2.86674 41.8788 2.86674 33.0342C2.86674 32.7514 2.86674 5.53262 2.86674 5.53262L11.7797 10.4988V33.0342C11.7797 36.9462 14.9445 40.1172 18.8482 40.1172C22.7518 40.1172 25.9166 36.9459 25.9166 33.0342C25.9166 29.8132 23.7694 27.0994 20.8326 26.2394V17.1468C28.7219 18.127 34.8296 24.8637 34.8296 33.0342C34.8304 41.8788 27.6749 49.049 18.8485 49.049Z" fill="#41699F"/>
</svg>
