<svg width="30" height="30" viewBox="0 0 30 30" fill="none" xmlns="http://www.w3.org/2000/svg">
<path d="M29.9007 25.5949C29.8714 24.4592 29.3907 23.4146 28.547 22.6537L19.292 14.3061L27.4751 6.12299C27.5289 6.10693 27.5821 6.08695 27.6333 6.05988L29.4054 5.12461C29.6502 4.99535 29.8144 4.76414 29.8557 4.49045C29.897 4.2167 29.8085 3.9474 29.6127 3.75146L27.6175 1.75628C27.4217 1.56052 27.1526 1.47199 26.8786 1.51335C26.6049 1.55466 26.3737 1.71884 26.2444 1.96371L25.3091 3.73564C25.2818 3.78738 25.2608 3.84088 25.2447 3.89519L21.3822 7.7577C21.2027 7.93729 21.2027 8.22826 21.3822 8.40785C21.5618 8.58727 21.8528 8.58727 22.0324 8.40785L25.5768 4.86334L26.5057 5.79223L17.4412 14.8567L16.5124 13.9278L20.4689 9.97131C20.6484 9.79172 20.6484 9.50074 20.4689 9.32115C20.2893 9.14174 19.9983 9.14174 19.8187 9.32115L16.948 12.1919L13.8237 9.37389C14.7095 6.82412 14.068 3.9873 12.1464 2.06578C10.1782 0.0975527 7.22554 -0.529694 4.62409 0.467983C4.47872 0.523764 4.37144 0.649272 4.33909 0.801557C4.30675 0.953843 4.35357 1.11216 4.46366 1.22226L8.07257 4.83123C8.17933 4.93799 8.23821 5.07996 8.23821 5.23096C8.23821 5.38195 8.17939 5.52392 8.07257 5.63074L5.72888 7.97443C5.62212 8.08125 5.48015 8.14008 5.32915 8.14008C5.17816 8.14008 5.03618 8.08131 4.92937 7.97443L1.3204 4.36547C1.21025 4.25537 1.05204 4.20855 0.899699 4.2409C0.747414 4.2733 0.621906 4.38053 0.566125 4.5259C-0.431551 7.12723 0.195695 10.0799 2.16398 12.0482C4.03845 13.9226 6.8203 14.5826 9.32993 13.7717L11.7456 16.4133C11.6295 16.6401 11.4786 16.8516 11.2924 17.0378C10.5961 17.7341 9.55247 17.9535 8.63343 17.5968C8.46357 17.5307 8.27085 17.5713 8.14194 17.7002L2.51349 23.3286C0.989816 24.8524 0.989816 27.3316 2.51349 28.8552C3.25171 29.5936 4.2331 30 5.27695 30C6.32073 30 7.30218 29.5936 8.04028 28.8555L13.6687 23.227C13.7975 23.0982 13.8381 22.9054 13.7722 22.7356C13.4154 21.8166 13.6348 20.7728 14.331 20.0765C15.0275 19.3802 16.0711 19.1608 16.9901 19.5175C17.1601 19.5836 17.3527 19.5428 17.4816 19.4141L18.5433 18.3524C18.863 18.0327 19.039 17.6076 19.039 17.1556C19.039 16.7035 18.863 16.2784 18.5433 15.9587L18.0914 15.5068L18.6412 14.957L27.9313 23.3363C28.5859 23.9268 28.959 24.7374 28.9817 25.6186C29.0044 26.4999 28.6735 27.3286 28.0502 27.9519C27.4298 28.5724 26.6032 28.9026 25.7277 28.8837C24.8505 28.8641 24.0414 28.4967 23.4493 27.8492L16.5417 20.2956C16.3702 20.1082 16.0796 20.0953 15.8923 20.2666C15.7049 20.438 15.6919 20.7287 15.8633 20.916L22.7708 28.4697C23.5339 29.3041 24.5767 29.7775 25.7072 29.8028C25.7388 29.8035 25.7704 29.8039 25.802 29.8039C26.897 29.8039 27.923 29.3791 28.7003 28.602C29.5036 27.7986 29.9299 26.7307 29.9007 25.5949ZM26.1417 4.12793L27.0217 2.4607L28.9083 4.34736L27.2411 5.22738L26.1417 4.12793ZM9.80425 12.9281C9.67769 12.7898 9.47999 12.7421 9.30433 12.8076C7.0565 13.6461 4.50872 13.0928 2.81402 11.3983C1.27523 9.85946 0.678976 7.62856 1.20439 5.54976L4.27921 8.62459C4.5597 8.90502 4.93253 9.05942 5.32909 9.05942C5.72566 9.05942 6.09849 8.90502 6.37892 8.62459L8.72261 6.2809C9.00304 6.00041 9.15743 5.62758 9.15743 5.23101C9.15743 4.83445 9.00304 4.46162 8.72261 4.18119L5.64784 1.10624C7.72646 0.5806 9.95759 1.17703 11.4963 2.71588C13.2342 4.45359 13.7682 7.05199 12.857 9.33569C12.7857 9.51434 12.8331 9.71854 12.976 9.84739L16.2971 12.8428L15.8622 13.2777L15.4103 12.8258C15.0906 12.5061 14.6655 12.3301 14.2134 12.3301C13.7614 12.3301 13.3363 12.5061 13.0166 12.8258L11.9549 13.8875C11.8261 14.0163 11.7855 14.2091 11.8515 14.379C11.9737 14.6939 12.0268 15.0233 12.0177 15.3486L9.80425 12.9281ZM17.8931 17.7023L17.0328 18.5626C15.8497 18.2216 14.5623 18.5451 13.681 19.4264H13.6809C12.7997 20.3077 12.4761 21.5949 12.8173 22.7783L7.39019 28.2052C6.8257 28.7697 6.07523 29.0806 5.277 29.0806C4.47878 29.0806 3.7282 28.7697 3.16382 28.2052C1.99857 27.04 1.99857 25.1441 3.16382 23.9788L8.59083 18.5518C9.77407 18.893 11.0613 18.5693 11.9427 17.688C12.8239 16.8067 13.1476 15.5194 12.8064 14.3361L13.6667 13.4759C13.9682 13.1743 14.4588 13.1743 14.7602 13.4759L15.5372 14.2529L17.1161 15.8318L17.8931 16.6088C18.1946 16.9103 18.1946 17.4009 17.8931 17.7023Z" fill="#6087A4"/>
</svg>
