<svg width="30" height="28" viewBox="0 0 30 28" fill="none" xmlns="http://www.w3.org/2000/svg">
<path d="M29.5 0C29.2239 0 29 0.223877 29 0.5V27H28V0.5C28 0.223877 27.7761 0 27.5 0C27.2239 0 27 0.223877 27 0.5V9H16V2H18V4C18 4.27612 18.2239 4.5 18.5 4.5H20.5C20.7761 4.5 21 4.27612 21 4V2H23V7.5C23 7.77612 23.2239 8 23.5 8C23.7761 8 24 7.77612 24 7.5V1.5C24 1.22388 23.7761 1 23.5 1H15.5C15.2239 1 15 1.22388 15 1.5V9H6.5V4H7.5V5.5C7.5 5.77612 7.72388 6 8 6H10C10.2761 6 10.5 5.77612 10.5 5.5V4H11.5V7.5C11.5 7.77612 11.7239 8 12 8C12.2761 8 12.5 7.77612 12.5 7.5V3.5C12.5 3.22388 12.2761 3 12 3H6C5.72388 3 5.5 3.22388 5.5 3.5V9H3V0.5C3 0.223877 2.77612 0 2.5 0C2.22388 0 2 0.223877 2 0.5V27H1V0.5C1 0.223877 0.776123 0 0.5 0C0.223877 0 0 0.223877 0 0.5V27.5C0 27.7761 0.223877 28 0.5 28H29.5C29.7761 28 30 27.7761 30 27.5V0.5C30 0.223877 29.7761 0 29.5 0ZM20 2V3.5H19V2H20ZM9.5 4V5H8.5V4H9.5ZM27 10V27H15.5V20H17.5V22C17.5 22.2761 17.7239 22.5 18 22.5H20C20.2761 22.5 20.5 22.2761 20.5 22V20H22.5V25.5C22.5 25.7761 22.7239 26 23 26C23.2761 26 23.5 25.7761 23.5 25.5V19.5C23.5 19.2239 23.2761 19 23 19H19.5V12H25.5C25.7761 12 26 11.7761 26 11.5C26 11.2239 25.7761 11 25.5 11H3V10H27ZM10.5 20H11.5V21.5H10.5V20ZM11.5 19V12H13.5V14C13.5 14.2761 13.7239 14.5 14 14.5H16C16.2761 14.5 16.5 14.2761 16.5 14V12H18.5V19H11.5ZM14.5 12H15.5V13.5H14.5V12ZM18.5 20H19.5V21.5H18.5V20ZM3 12H10.5V19H7C6.72388 19 6.5 19.2239 6.5 19.5V27H3V12ZM7.5 20H9.5V22C9.5 22.2761 9.72388 22.5 10 22.5H12C12.2761 22.5 12.5 22.2761 12.5 22V20H14.5V27H7.5V20Z" fill="#6087A4"/>
</svg>
