<svg width="388" height="388" viewBox="0 0 388 388" fill="none" xmlns="http://www.w3.org/2000/svg">
<path opacity="0.8" d="M194 388C301.143 388 388 301.143 388 194C388 86.8573 301.143 0 194 0C86.8573 0 0 86.8573 0 194C0 301.143 86.8573 388 194 388Z" fill="#C40F68"/>
<path d="M194.001 306.519C256.143 306.519 306.52 256.142 306.52 194C306.52 131.854 256.143 81.4778 194.001 81.4778C131.858 81.4778 81.4814 131.854 81.4814 194C81.4814 256.142 131.858 306.519 194.001 306.519Z" fill="white"/>
<path d="M377.573 137.74H10.4277V250.259H377.573V137.74Z" fill="white"/>
<path d="M194 365.305C288.61 365.305 365.306 288.61 365.306 194C365.306 99.3896 288.61 22.6914 194 22.6914C99.3898 22.6914 22.6943 99.3896 22.6943 194C22.6943 288.61 99.3898 365.305 194 365.305Z" stroke="white" stroke-width="1.273"/>
<path d="M252.143 259.392H238.25V281.068H252.537V278.774H240.809V270.622H249.482V268.328H240.809V261.686H252.143V259.392ZM217.915 261.686C223.73 261.686 227.083 265.237 227.083 270.197C227.083 275.059 223.73 278.774 217.915 278.774H214.069V261.686H217.915ZM217.948 259.392H211.512V281.068H217.948C225.307 281.068 229.739 276.409 229.739 270.197C229.739 263.887 225.307 259.392 217.948 259.392ZM201.618 259.392H199.062V281.071H201.618V259.392ZM183.06 259.031C179.545 259.031 176.526 261.226 176.526 264.678C176.526 267.733 178.888 269.277 181.418 270.493L183.849 271.643C185.987 272.661 187.465 273.449 187.465 275.456C187.465 277.657 185.658 279.07 183.093 279.07C180.301 279.07 178.363 277.361 177.052 275.358L175.146 276.77C176.822 279.625 179.677 281.429 183.126 281.429C187.137 281.429 190.123 279.037 190.123 275.39C190.123 272.464 188.221 270.854 185.067 269.343L182.666 268.193C180.695 267.241 179.184 266.518 179.184 264.547C179.184 262.409 181.024 261.391 183.028 261.391C185.001 261.391 186.841 262.376 187.991 264.12L189.861 262.705C188.514 260.572 186.02 259.031 183.06 259.031ZM164.305 259.392V275.683L150.508 259.031H149.588V281.068H152.148V264.81L165.945 281.429H166.865V259.392H164.305ZM139.698 259.392H137.141V281.071H139.698V259.392Z" fill="#C40F68"/>
<path d="M93.3604 136.707H301.755" stroke="#C40F68"/>
<path d="M91.6934 251.74H298.42" stroke="#C40F68"/>
<path d="M270.452 175.051L265.077 191.17H273.585V225.066H290.97V191.17H300.087V175.051H270.452Z" fill="#335E8D"/>
<path d="M250.225 175.051L242.594 197.086L236.808 175.051H223.327L217.541 197.086L209.912 175.051H191.723L208.892 225.066H223.708L230.069 200.728L236.429 225.066H251.242L268.412 175.051H250.225Z" fill="#335E8D"/>
<path d="M187.222 199.354C190.849 197.085 193.261 193.055 193.261 188.462C193.261 181.371 187.512 175.623 180.422 175.623H153.859V224.359V224.387H183.028C190.135 224.387 195.895 218.624 195.895 211.517C195.895 205.881 192.267 201.093 187.222 199.354ZM168.727 187.717H173.474C174.889 187.717 176.039 189.184 176.039 190.994C176.039 192.803 174.889 194.271 173.474 194.271H168.727V187.717ZM175.982 213.686H168.776V206.554H175.982C177.561 206.554 178.842 208.153 178.842 210.121C178.842 212.09 177.561 213.686 175.982 213.686Z" fill="#335E8D"/>
<path d="M131.241 182.332L131.22 182.311L96.7536 162.959V169.094L87.0791 163.969V202.807C87.0791 215.389 97.2793 225.589 109.861 225.589C112.418 225.589 114.874 225.162 117.168 224.384C118.123 224.507 119.092 224.579 120.08 224.579C132.564 224.579 142.679 214.46 142.679 201.98C142.679 193.559 138.072 186.22 131.241 182.332ZM109.861 222.123C99.1928 222.123 90.5449 213.475 90.5449 202.807V169.633L101.317 175.623V202.807C101.317 207.523 105.144 211.351 109.861 211.351C114.581 211.351 118.405 207.523 118.405 202.807C118.405 198.922 115.81 195.648 112.262 194.61V183.644C121.797 184.824 129.18 192.949 129.18 202.807C129.18 213.475 120.529 222.123 109.861 222.123Z" fill="#335E8D"/>
<path d="M306.144 267.454L308.77 263.241C310.283 260.815 312.534 260.438 314.486 261.656C316.465 262.89 317.059 265.042 315.548 267.47L312.92 271.681L306.144 267.454ZM330.185 265.529L318.548 266.436C319.367 263.578 318.345 260.933 315.865 259.384C312.769 257.454 309.136 258.319 306.875 261.943L302.843 268.409L321.234 279.882L322.589 277.712L314.869 272.893L317.322 268.962L328.606 268.067L330.185 265.529ZM301.323 270.728L292.612 281.552L309.5 295.142L318.458 284.013L316.67 282.573L309.317 291.709L302.966 286.6L308.405 279.844L306.615 278.404L301.178 285.16L296.007 280.997L303.111 272.168L301.323 270.728ZM291.523 282.861L278.769 295.325L280.373 296.968L285.823 291.64L299.369 305.503L301.2 303.716L287.655 289.853L293.127 284.503L291.523 282.861ZM285.673 308.723L278.67 313.834L275.878 302.653L285.673 308.723ZM291.903 312.468L294.104 310.858L273.526 298.596L272.757 299.158L278.161 322.495L280.337 320.908L279.228 316.267L287.822 309.996L291.903 312.468ZM265.924 305.386L267.914 322.81L254.352 310.738L253.528 311.148L254.987 329.276L242.28 317.146L239.75 318.403L256.945 334.467L257.769 334.056L256.252 315.588L270.063 327.943L270.884 327.532L268.426 304.143L265.924 305.386ZM222.44 325.06C228.091 323.681 232.189 326.333 233.366 331.152C234.519 335.877 232.142 340.279 226.492 341.658L222.758 342.57L218.704 325.972L222.44 325.06ZM221.926 322.821L215.676 324.349L220.817 345.406L227.07 343.881C234.22 342.135 237.42 336.555 235.945 330.522C234.45 324.392 229.079 321.075 221.926 322.821ZM213.557 324.527L199.721 325.756L201.641 347.35L215.87 346.085L215.665 343.799L203.984 344.837L203.264 336.717L211.901 335.95L211.698 333.662L203.059 334.431L202.473 327.817L213.762 326.812L213.557 324.527ZM183.789 344.842L197.625 326.728L197.655 325.972L181.933 325.375L181.845 327.669L193.496 328.113L179.726 346.23L179.699 346.983L196.863 347.637L196.951 345.343L183.789 344.842ZM178.076 324.811L175.541 324.455L172.535 345.923L175.07 346.279L178.076 324.811ZM162.685 322.035L160.186 321.491L155.57 342.671L168.116 345.406L168.606 343.161L158.56 340.974L162.685 322.035ZM148.012 333.394L139.835 330.511L147.472 321.882L148.012 333.394ZM148.45 340.648L151.02 341.554L149.487 317.647L148.589 317.33L132.405 334.992L134.943 335.887L138.143 332.348L148.179 335.885L148.45 340.648ZM126.776 310.097L131.165 312.416C133.694 313.749 134.234 315.966 133.158 318.003C132.068 320.064 129.966 320.812 127.436 319.479L123.048 317.16L126.776 310.097ZM130.423 333.941L128.682 322.397C131.592 323.007 134.157 321.8 135.523 319.213C137.226 315.988 136.103 312.427 132.325 310.431L125.586 306.875L115.465 326.043L117.726 327.237L121.977 319.191L126.073 321.354L127.778 332.545L130.423 333.941ZM123.645 305.739L112.426 297.548L99.6444 315.057L111.183 323.481L112.538 321.625L103.064 314.712L107.871 308.129L114.876 313.24L116.229 311.386L109.223 306.273L113.138 300.91L122.292 307.592L123.645 305.739ZM107.356 293.299L96.2526 305.221L97.5064 283.63L96.833 283.003L81.812 299.13L83.6845 300.874L94.7661 288.977L93.5342 310.543L94.2049 311.17L109.229 295.043L107.356 293.299ZM94.2022 279.973L92.5514 278.018L75.9947 292.01L77.6454 293.962L94.2022 279.973ZM89.4936 274.166L74.0373 273.441L79.5289 259.017L79.0251 258.25L60.6123 270.361L62.0167 272.499L75.0529 263.925L70.9767 274.944L71.4832 275.713L83.1424 276.343L70.1609 284.879L71.568 287.017L89.9809 274.906L89.4936 274.166Z" fill="white"/>
<path d="M323.739 108.243L303.899 108.531L308.411 89.2089L307.204 87.7087L284.282 106.168L287.989 110.77L299.993 101.101L297.463 112.478L298.671 113.978L310.327 113.932L298.323 123.601L302.027 128.2L324.949 109.741L323.739 108.243ZM295.659 78.015L290.885 74.5328L280.638 88.582C278.084 92.086 274.572 92.2913 271.635 90.1478C268.73 88.029 267.818 84.5988 270.373 81.0947L280.619 67.0456L275.845 63.5634L265.858 77.2594C261.289 83.5229 262.713 90.4106 268.412 94.5663C274.076 98.6972 281.104 97.9745 285.67 91.711L295.659 78.015ZM264.971 58.091L259.682 55.4629L246.819 81.3466L252.11 83.9746L264.971 58.091ZM239.95 47.4391C234.743 45.8897 229.846 47.7649 228.422 52.5502C227.261 56.4567 229.356 59.5474 232.764 62.5258L235.345 64.757C237.232 66.4159 238.387 67.4452 237.85 69.252C237.275 71.182 235.425 71.8664 232.988 71.1409C229.67 70.1554 228.274 67.6369 227.387 65.0882L222.61 66.8649C223.568 71.1711 226.706 74.7491 231.491 76.1753C236.993 77.8096 242.124 75.9125 243.659 70.7495C244.834 66.8019 243.022 63.8399 239.233 60.6123L236.492 58.2881C234.751 56.7633 233.733 55.7312 234.207 54.1352C234.757 52.2874 236.602 51.9205 238.453 52.4708C240.719 53.147 242.052 54.8223 242.794 57.2369L247.538 55.4027C246.802 51.8959 244.36 48.7504 239.95 47.4391ZM219.019 42.7388L199.653 41.0196L197.096 69.8078L216.985 71.5762L217.458 66.2571L203.453 65.0143L204.099 57.7214L214.003 58.6029L214.45 53.5904L204.545 52.7117L205.065 46.8588L218.545 48.0551L219.019 42.7388ZM180.397 41.6629L182.354 58.8055L163.668 43.0481L161.754 43.2671L165.097 72.5043L170.966 71.8335L168.998 54.6033L187.652 70.4538L189.609 70.2321L186.266 40.9922L180.397 41.6629ZM135.216 51.9753C127.143 55.274 123.355 63.8207 126.568 71.6885C129.785 79.5562 138.515 82.9864 146.544 79.7068C152.263 77.3689 155.723 72.4112 156.35 67.2344L153.12 59.3284L140.27 64.579L142.205 69.3177L149.589 66.3009L150.484 68.4937C149.851 71.119 147.908 73.4295 144.787 74.7052C139.391 76.909 134.321 74.5766 132.2 69.3889C130.114 64.2779 132.011 59.1942 137.204 57.0726C140.489 55.7312 143.478 56.213 146.273 57.9596L148.852 53.1661C144.812 50.56 140.002 50.0207 135.216 51.9753ZM116.653 85.3845L110.425 89.9261L107.783 79.7615L116.653 85.3845ZM124.707 90.1834L129.837 86.4412L102.092 70.2512L100.501 71.412L107.405 102.801L112.536 99.0586L111.624 95.0618L121.178 88.0947L124.707 90.1834ZM79.6275 89.1596L84.139 108.484L64.2971 108.194L63.0898 109.694L86.0114 128.151L89.7154 123.552L77.7112 113.882L89.3677 113.932L90.575 112.429L88.0427 101.052L100.05 110.721L103.756 106.119L80.8347 87.6594L79.6275 89.1596Z" fill="white"/>
</svg>
