<svg width="1005" height="464" viewBox="0 0 1005 464" fill="none" xmlns="http://www.w3.org/2000/svg">
<g opacity="0.15">
<path d="M1001.32 401.582C1002.48 401.489 1004.03 400.457 1005 401.391C1004.3 403.062 1003.04 404.681 1001.32 405.46C1000.52 405.816 999.459 405.684 998.614 406.04C997.006 406.701 996.156 408.377 994.75 409.525C993.415 410.606 991.66 411.53 990.291 412.431C988.976 413.286 987.066 415.04 985.453 413.78C985.58 411.516 987.99 411.54 988.557 409.712C988.548 408.357 987.35 408.206 987.395 406.808C990.077 404.456 994.294 402.765 994.934 397.906C995.228 395.754 993.478 391.133 996.097 390.934C999.182 390.699 997.442 394.038 997.651 395.774C997.73 396.478 998.453 396.957 998.804 397.906C999.446 399.602 999.391 401.146 1001.32 401.582Z" fill="#6087A4"/>
<path d="M982.549 413.197C981.474 416.43 976.768 418.121 973.646 420.169C972.692 420.801 971.91 422.233 970.743 422.682C969.233 423.284 967.518 423.088 965.91 423.845C963.353 425.048 961.433 427.4 959.135 428.882C956.887 430.329 953.6 432.363 951.004 432.558C948.14 432.778 942.852 430.934 946.362 428.301C947.881 427.165 951.107 425.83 952.749 425.014C958.251 422.248 965.992 420.39 970.551 417.07C973.128 415.197 975.459 413.207 977.908 411.653C979.128 410.87 981.19 412.968 982.549 413.197Z" fill="#6087A4"/>
<path d="M949.068 283.679C949.688 283.511 949.67 283.981 950.04 284.063C949.805 286.831 948.15 288.641 944.616 288.328C943.038 288.181 940.281 286.998 940.169 286.201C939.773 283.418 947.298 285.131 949.068 283.679Z" fill="#6087A4"/>
<path d="M939.588 296.844C940.985 297.24 947.202 301.641 945.198 303.616C944.114 304.705 942.716 303.038 940.947 302.652C938.577 302.134 936.759 302.764 935.141 301.489C933.298 300.046 932.855 296.903 930.879 295.099C929.883 294.19 927.244 292.968 925.465 293.162C922.391 293.496 922.421 297.02 919.659 298.585C917.015 298.301 915.451 299.068 913.462 298.388C911.37 297.675 910.32 294.962 908.428 294.717C906.463 294.449 901.807 297.885 901.078 294.908C900.487 292.497 904.324 291.705 904.558 290.068C904.807 288.387 903.052 285.771 902.235 285.032C901.426 284.299 900.286 284.24 899.332 283.679C898.346 283.087 897.579 281.953 896.429 281.356C892.378 279.239 886.186 280.1 884.627 276.708C884.351 276.106 884.779 275.445 884.433 274.581C884.012 273.52 882.453 273.177 881.916 272.257C880.542 269.896 881.505 266.409 883.85 266.058C885.966 265.746 890.14 268.357 890.625 269.936C890.883 270.761 890.448 271.69 890.625 272.644C890.844 273.789 892.554 276.584 894.108 276.708C896.112 276.873 897.295 273.779 899.137 272.644C900.412 271.862 902.499 270.962 904.175 271.094C905.817 271.221 906.923 272.516 908.813 273.221C910.167 273.729 911.853 273.931 913.461 274.385C914.863 274.781 916.08 275.608 917.522 276.126C922.131 277.797 927.613 278.776 930.101 281.743C930.78 282.555 930.765 283.752 931.655 284.647C932.471 285.474 936.948 286.281 937.07 288.134C937.169 289.541 935.227 289.624 935.14 291.036C934.96 293.857 938.913 293.69 939.588 296.844Z" fill="#6087A4"/>
<path d="M898.751 412.811C898.174 415.227 896.331 417.912 893.913 419.588C892.168 420.804 886.616 423.26 885.981 419.784C885.804 418.816 887.061 414.322 887.525 413.393C888.894 410.681 890.354 412.455 892.559 412.811C894.82 413.177 896.946 411.443 898.751 412.811Z" fill="#6087A4"/>
<path d="M883.654 131.312C884.442 133.635 884.979 135.923 885.594 138.088C883.458 140.743 879.241 139.76 876.113 141.183C874.642 141.853 874.236 144.297 872.819 144.669C871.681 144.968 870.8 143.681 869.725 143.701C866.945 143.755 865.586 148.355 862.175 147.187C860.225 148.35 862.252 152.809 859.854 153.185C858.149 153.454 857.21 151.25 856.174 149.896C854.922 148.253 853.134 147.353 853.085 146.023C853.032 144.644 855.861 142.337 856.755 141.379C857.855 140.201 860.014 138.005 861.398 137.697C863.978 137.131 866.597 137.946 868.564 137.12C870.258 136.397 870.356 133.727 871.27 133.053C872.047 132.48 872.931 132.637 873.596 132.28C875.39 131.307 877.331 127.959 876.304 124.536C875.658 122.375 872.077 120.009 874.373 117.369C877.799 117.736 882.32 121.114 882.886 124.536C883.106 125.871 882.368 127.206 882.495 128.6C882.564 129.4 883.307 130.261 883.654 131.312Z" fill="#6087A4"/>
<path d="M884.431 110.206C883.996 111.194 883.121 110.988 882.305 111.56C881.513 112.118 880.574 113.893 879.598 114.078C878.043 114.372 876.298 112.552 874.753 112.92C872.941 113.35 874.001 114.743 873.401 116.4C871.812 116.063 869.206 114.294 869.144 112.529C869.101 111.419 870.541 110.734 870.888 109.434C871.461 107.219 869.975 106.104 869.144 104.012C869.084 103.699 869.328 103.679 869.335 103.43C871.225 103.034 874.94 106.598 879.207 107.302C881.963 107.756 884.269 107.512 884.431 110.206Z" fill="#6087A4"/>
<path d="M877.278 306.72C877.474 308.329 874.668 308.142 874.375 307.101C874.429 305.855 876.932 305.464 877.278 306.72Z" fill="#6087A4"/>
<path d="M863.724 93.9451C865.641 94.9576 870.283 97.2551 867.014 99.3673C865.034 98.6338 862.972 96.1305 863.724 93.9451Z" fill="#6087A4"/>
<path d="M854.825 298.203C857.038 296.996 859.458 294.346 863.338 295.68C862.488 298.091 859.57 298.042 857.728 299.167C855.861 300.306 854.282 302.236 851.922 302.458C851.741 302.114 851.488 301.855 851.145 301.68C851.135 299.519 853.291 299.025 854.825 298.203Z" fill="#6087A4"/>
<path d="M849.602 261.8C851.873 261.805 854.014 261.101 855.593 261.995C855.299 266.836 847.794 263.155 842.828 263.933C841.767 264.094 841.456 264.914 840.306 264.508C840.37 262.871 842.14 261.215 843.982 261.028C845.403 260.881 847.524 261.795 849.602 261.8Z" fill="#6087A4"/>
<path d="M851.531 267.798C851.75 270.478 848.095 270.775 847.079 272.84C848.687 275.298 849.312 278.735 851.145 280.965C851.067 282.442 851.444 284.372 850.563 285.032C846.668 285.78 844.572 278.775 843.013 276.325C840.036 276.882 842.754 286.412 838.761 285.229C836.802 284.646 838.786 281.924 838.37 279.811C838.009 277.953 836.191 277.572 836.049 276.125C835.937 274.932 837.364 273.666 837.789 272.448C838.404 270.692 838.013 267.315 840.11 267.226C841.146 267.178 842.535 269.402 843.208 269.544C845.52 270.043 848.267 267.188 851.531 267.798Z" fill="#6087A4"/>
<path d="M844.37 296.649C843.658 298.116 839.679 297.411 839.343 296.067C840.021 294.542 844.039 295.001 844.37 296.649Z" fill="#6087A4"/>
<path d="M840.692 301.293C840.468 301.581 840.208 301.84 839.925 302.071C838.454 301.601 836.885 301.245 836.441 299.748C837.526 298.154 840.644 299.474 840.692 301.293Z" fill="#6087A4"/>
<path d="M835.468 296.453C834.487 297.847 831.081 296.341 829.858 297.807C827.844 297.758 825.817 297.733 825.406 296.067C825.987 294.649 827.821 295.623 829.276 295.486C831.613 295.275 834.848 293.632 835.468 296.453Z" fill="#6087A4"/>
<path d="M808.184 370.604C808.169 368.894 807.099 367.388 806.825 365.574C806.727 364.919 806.922 364.073 806.825 363.246C806.698 362.049 806.106 361.051 806.244 360.342C806.513 359.062 808.008 358.925 808.379 357.826C808.986 356.02 807.637 355.732 807.602 353.566C807.577 352.037 808.761 351.293 809.541 349.308C809.899 348.389 809.914 346.673 810.31 346.018C810.813 345.192 812.954 344.493 813.794 344.087C816.761 342.63 819.139 339.922 822.122 339.437C822.874 339.315 823.9 339.531 824.443 339.437C826.198 339.13 828.402 337.658 830.83 337.115C833.177 336.582 835.254 336.782 837.022 335.755C838.964 334.636 841.71 331.703 842.437 329.949C843.322 327.822 843.062 326.028 844.76 325.304C845.594 324.952 846.411 325.334 847.275 325.112C848.171 324.878 850.096 323.964 850.761 323.368C852.11 322.16 852.329 320.18 853.855 318.914C854.914 318.043 856.903 316.698 858.31 316.015C859.137 315.599 860.671 315.168 861.4 315.236C864.131 315.47 865.401 319.28 868.369 318.527C869.429 318.259 870.51 316.005 871.472 314.656C872.866 312.68 873.882 310.02 876.306 309.43C878.264 308.949 880.455 310.182 881.53 308.461C881.775 307.238 880.616 306.51 881.53 305.748C883.789 305.89 887.6 308.935 891.012 309.037C892.849 309.096 896.26 307.033 896.626 309.815C896.788 311.046 895.249 312.04 894.886 313.301C894.627 314.19 895.267 314.67 894.691 315.624C893.116 316.244 891.45 316.571 891.402 318.332C891.343 320.541 894.525 321.577 896.43 322.79C897.74 323.617 898.83 324.883 899.529 325.303C900.125 325.655 901.068 325.821 901.464 326.076C902.721 326.893 903.61 328.741 905.34 328.79C907.305 328.838 909.27 326.33 910.368 323.944C911.655 321.156 911.727 317.773 912.299 314.846C912.494 313.868 913.188 312.914 913.462 311.942C914.21 309.295 915.222 305.718 917.523 304.779C919.834 307.227 920.623 311.99 920.24 316.014C921.784 317.187 924.502 316.796 924.878 319.499C925.01 320.433 924.415 321.626 924.492 322.59C924.624 324.222 925.836 325.65 926.046 327.044C926.432 329.625 925.616 331.752 926.813 333.628C928.324 335.996 931.285 335.917 933.201 338.475C933.167 340.062 933.797 340.704 934.168 341.95C934.35 342.542 934.178 343.506 934.364 343.892C934.985 345.186 936.661 345.314 937.268 346.403C937.566 346.941 937.482 347.955 937.848 348.922C938.378 350.344 939.653 351.405 940.556 352.794C941.43 354.139 942.862 355.601 943.072 356.671C943.459 358.598 942.061 359.922 941.714 361.507C941.299 363.433 941.714 365.916 940.948 367.896C940.049 370.223 937.833 372.517 936.105 375.446C934.686 377.855 932.756 380.569 930.684 382.221C929.462 383.2 928.011 383.766 926.813 384.744C924.96 386.254 923.442 388.216 921.784 389.97C920.04 391.814 917.929 393.221 916.555 394.805C914.567 397.109 913.579 400.823 910.173 401.196C908.179 401.416 906.391 401.244 904.558 401.973C901.693 403.112 899.793 405.209 898.371 405.264C896.875 405.312 895.493 403.508 894.109 403.327C892.56 403.127 891.343 404.502 889.08 404.487C888.156 404.482 887.692 403.939 886.373 403.519C883.607 402.644 880.567 402.679 880.181 399.651C879.962 397.999 881.232 397.256 881.144 395.775C881.06 394.298 879.614 393.926 879.013 392.679C879.395 391.346 879.457 389.663 878.045 388.803C877.997 387.6 878.304 386.74 878.822 386.095C877.699 386.574 876.217 386.872 874.948 387.65C873.539 388.5 872.523 390.455 870.891 390.163C869.361 389.625 870.535 388.104 870.309 386.872C870.139 385.934 867.998 381.928 867.015 381.259C865.897 380.492 861.801 378.952 860.437 378.736C854.456 377.801 850.644 381 845.918 381.455C844.706 381.567 843.386 381.25 842.246 381.455C838.357 382.135 834.022 385.224 831.599 387.259C827.596 387.655 823.54 386.437 819.404 387.65C815.304 388.846 812.955 392.265 806.641 391.321C805.389 390.245 803.165 389.713 803.155 387.84C803.14 386.363 805.339 385.411 806.058 384.355C806.821 383.225 808.125 380.565 808.184 378.933C808.224 377.647 807.318 376.108 807.408 374.484C807.48 373.215 808.194 371.862 808.184 370.604Z" fill="#6087A4"/>
<path d="M804.895 289.872C805.95 289.725 806.737 288.945 807.798 288.91C810.051 288.821 812.285 290.576 814.952 290.258C815.534 290.885 815.138 291.404 815.153 292.395C817.416 293.603 821.129 293.382 822.307 295.681C820.611 297.48 818.094 296.189 815.92 295.872C813.956 295.593 811.864 295.73 809.728 295.486C807.021 295.173 804.572 293.676 801.992 293.359C800.423 293.163 798.82 293.583 797.343 293.359C795.603 293.09 789.114 290.64 789.022 288.91C788.928 287.125 791.943 286.622 794.632 286.968C798.11 287.423 800.433 290.494 804.895 289.872Z" fill="#6087A4"/>
<path d="M810.113 276.516C808.652 276.105 807.28 276.329 806.64 275.933C805.313 275.118 805.51 272.8 805.084 271.48C804.658 270.145 803.052 269.432 802.187 267.609C800.925 264.969 800.383 259.058 803.731 258.51C805.079 258.284 806.468 259.322 807.406 259.092C809.274 258.632 808.945 256.217 810.504 255.215C811.368 254.657 812.953 254.891 814.184 254.443C815.451 253.977 816.402 252.771 817.278 251.733C818.09 250.766 818.725 249.143 819.794 248.445C820.997 247.651 822.111 247.633 823.083 246.893C825.62 244.958 825.702 242.258 827.726 239.921C829.447 237.946 832.163 241.824 832.375 243.408C833.336 244.639 835.228 244.943 836.05 246.312C834.911 249.72 831.695 250.014 832.375 254.829C832.487 255.616 833.019 257.073 833.538 258.124C834.09 259.258 835.726 260.481 835.664 261.218C835.537 262.665 832.624 262.603 831.984 264.123C831.396 265.53 832.027 265.624 831.792 267.799C830.977 269.378 828.792 269.759 828.112 271.677C827.296 273.979 828.234 276.955 826.374 278.649C825.087 278.579 823.68 279.762 822.121 279.61C820.426 279.455 818.808 277.127 816.114 277.092C815.088 277.084 813.876 277.749 812.825 277.675C812 277.615 811.331 276.853 810.113 276.516Z" fill="#6087A4"/>
<path d="M797.594 272.208C802.516 272.208 802.516 279.851 797.594 279.851C792.669 279.851 792.669 272.208 797.594 272.208Z" fill="#6087A4"/>
<path d="M790.375 271.285C790.98 271.368 793.121 274.346 793.087 275.161C793.019 276.526 790.972 276.452 790.375 278.257C789.466 281.039 790.786 284.191 789.217 285.618C788.338 286.151 786.749 285.991 785.347 286.001C781.837 283.531 779.058 280.589 776.056 277.288C774.967 276.09 773.638 275.049 772.958 273.802C771.952 271.953 771.594 269.92 770.446 268.189C769.43 266.67 767.567 265.584 766.571 263.932C765.763 262.572 765.686 260.787 764.834 259.477C764.034 258.26 762.685 257.738 761.732 256.764C761.117 256.129 760.763 255.137 760.188 254.442C757.755 251.528 753.077 250.008 752.838 245.73C753.83 244.596 754.852 246.155 756.704 246.507C757.905 246.733 759.324 246.409 760.188 246.698C761.946 247.289 763.158 250.036 765.026 251.538C766.071 252.379 767.436 252.96 768.504 253.86C769.654 254.823 770.494 256.201 771.409 256.764C772.669 257.536 774.415 258.044 776.056 259.092C778.294 260.515 782.288 261.994 782.83 264.904C782.962 265.623 782.492 266.844 782.634 267.412C782.903 268.429 784.188 268.869 784.957 269.736C785.908 270.815 786.105 272.429 787.472 272.643C788.836 273.024 788.899 271.094 790.375 271.285Z" fill="#6087A4"/>
<path d="M699.029 230.628C700.695 231.175 706.257 237.936 704.64 241.667C704.18 242.728 702.263 244.093 700.383 243.794C696.552 243.187 697.284 234.657 698.448 231.209C698.556 230.93 698.755 230.735 699.029 230.628Z" fill="#6087A4"/>
<path d="M570.334 328.599C570.505 327.039 571.615 324.482 572.851 323.558C574.635 322.233 577.049 322.37 578.852 321.431C580.338 320.654 582.397 319.368 583.495 317.946C584.428 316.738 584.478 315.36 585.24 314.459C585.758 313.839 586.931 313.672 587.556 312.915C588.118 312.23 587.996 310.959 588.915 310.207C591.602 309.057 592.374 313.981 592.79 317.364C592.912 318.42 593.46 319.55 593.362 320.073C593.083 321.617 591.383 321.936 590.85 322.987C590.718 327.229 589.052 330.916 587.556 334.401C586.271 337.414 585.523 340.714 584.463 343.31C584.077 344.254 583.266 344.991 582.917 345.823C581.52 349.118 581.007 354.291 578.462 355.699C577.548 356.202 574.013 357.066 573.042 357.054C570.672 357.019 568.618 355.239 568.013 353.186C567.685 352.085 568.008 350.937 567.818 349.699C567.582 348.145 566.659 346.82 566.85 345.051C567.28 341.11 571.116 339.198 571.302 335.952C571.444 333.506 570.065 331.077 570.334 328.599Z" fill="#6087A4"/>
<path d="M477.056 53.093C477.281 56.3389 472.095 55.9338 471.441 58.71C471.147 59.9668 472.046 61.6441 471.832 62.7736C471.436 64.8073 469.471 64.2157 466.993 65.2909C465.727 65.8387 464.501 67.8527 463.122 67.9996C461.847 68.1366 461.07 67.2562 460.219 67.4231C458.949 67.6624 459.374 69.2216 457.508 69.55C456.022 69.809 453.422 68.22 453.251 70.1314C453.138 71.3583 455.587 72.0235 457.122 71.8714C458.339 71.7543 459.228 70.9185 460.41 70.9038C462.702 70.8838 464.193 72.6053 465.635 72.6487C468.958 72.7419 472.218 69.5787 475.703 69.9358C477.276 70.0967 478.21 71.2115 479.378 71.099C481.244 70.9223 482.833 68.7663 484.216 67.9992C483.63 64.7386 484.269 60.436 487.314 60.2552C489.406 60.1329 492.544 63.8333 492.924 60.2552C493.091 58.701 491.273 57.3261 490.022 57.351C488.908 57.3751 487.446 59.5564 486.537 57.7421C486.543 55.9674 488.532 56.4366 489.636 55.9964C490.457 55.6688 491.038 54.7744 491.957 54.4467C496.56 52.8287 502.943 56.0357 504.73 52.1243C500.646 48.639 493.692 53.3954 489.054 53.0926C487.075 52.9654 484.465 51.4934 483.83 49.6066C483.629 49.0101 483.796 48.2083 483.634 47.0935C483.459 45.8567 482.818 44.5615 482.862 43.7982C483.058 40.3024 491.761 39.6432 491.761 35.2822C490.1 33.6883 485.227 33.9571 483.634 35.6684C483.063 36.2841 483.092 37.5306 482.281 38.7681C480.545 41.4134 474.94 41.726 473.186 44.9617C472.795 45.6812 472.115 47.6466 472.409 48.8335C472.868 50.6682 476.924 51.1665 477.056 53.093ZM430.995 242.439C425.419 241.622 419.716 243.872 415.898 245.533C413.695 246.497 411.451 247.964 409.511 248.051C407.674 248.14 405.865 247.074 404.096 246.893C401.789 246.654 398.833 246.875 396.546 247.279C394.322 247.675 392.314 249.264 390.354 249.406C386.6 249.69 383.033 246.024 380.677 244.18C379.235 243.057 377.77 242.136 376.42 241.085C374.974 239.951 373.098 239.266 371.969 238.18C370.444 236.705 370.444 234.137 369.647 232.177C368.704 229.869 365.835 228.173 363.646 225.982C362.008 224.344 358.251 221.896 357.84 219.789C357.634 218.713 358.299 217.471 358.226 216.303C358.123 214.606 356.848 213.643 356.872 212.43C356.911 210.728 358.914 209.413 359.389 207.976C359.634 207.242 359.516 206.206 359.775 205.267C360.317 203.302 361.618 202.139 361.325 199.264C361.206 198.12 360.225 197.074 360.162 195.587C360.122 194.57 360.831 194.003 360.743 193.069C360.596 191.417 358.451 191.094 358.226 189.197C358.001 187.237 360.098 185.618 361.324 183.389C361.877 182.391 362.179 180.861 362.678 180.098C363.763 178.451 365.532 177.654 366.358 176.031C366.964 174.833 367.159 173.058 367.712 172.159C368.426 171.005 369.843 170.384 371.197 168.868C372.296 167.632 372.745 166.135 373.517 165.578C374.49 164.874 375.942 164.703 377.002 164.224C380.585 162.591 383.204 160.488 384.934 157.056C384.407 153.942 385.202 152.627 386.483 150.476C387.666 148.486 388.531 146.584 390.549 145.44C392.969 144.071 395.241 143.944 396.932 141.377C397.777 140.091 399.048 137.871 399.063 136.537C399.082 134.621 397.099 132.166 395.387 131.887C393.638 131.609 390.95 133.217 389.968 131.311C389.655 130.699 390.085 129.272 389.968 128.598C389.744 127.331 388.658 126.436 388.615 125.502C388.521 123.684 390.403 121.792 390.935 119.695C391.66 116.839 390.96 114.654 390.74 111.369C393.448 107.1 399.459 109.217 405.451 109.623C406.35 109.687 407.381 109.408 408.353 109.433C411.906 109.515 414.702 110.586 415.899 107.496C416.349 106.333 416.75 102.006 416.481 100.911C416.163 99.615 413.622 96.2562 412.414 95.494C410.494 94.2713 407.708 94.8043 406.609 92.5898C407.503 88.7667 411.784 91.9495 414.35 91.0405C415.659 90.5758 415.513 88.3069 416.676 87.9407C417.468 87.6919 418.479 88.738 419.58 88.718C420.517 88.6984 423.914 86.992 424.803 86.3906C426.04 85.5548 426.421 83.819 427.511 83.1002C428.25 82.6166 429.222 82.6751 430.028 82.3278C431.675 81.6188 433.757 80.1767 434.866 78.8418C436.464 76.9252 437.183 74.5491 439.123 74.1972C441.719 73.7231 447.587 74.7107 448.028 71.8699C448.442 69.1661 445.648 67.0399 446.674 64.1259C447.485 61.823 449.552 62.2289 452.48 60.8354C453.892 61.8377 453.482 64.7023 453.639 66.4525C455.437 66.4672 459.097 65.9202 459.444 64.3214C459.879 62.3266 456.825 60.2979 456.155 59.0947C455.432 57.7896 455.276 55.4966 453.834 55.2229C450.887 54.6559 448.023 59.2861 444.348 59.2861C441.934 59.2861 439.374 57.4231 438.738 55.6087C438.376 54.5725 438.704 53.5947 438.542 52.5097C438.308 50.9257 437.36 49.2831 437.77 47.0924C439.251 44.5505 442.666 44.1398 445.125 42.8294C446.054 42.3353 446.801 41.2801 447.833 40.8939C449.569 40.2529 452.133 40.8981 453.834 39.9252C454.909 39.3148 454.607 38.2577 455.383 37.021C455.867 36.2437 457.049 35.7892 457.705 34.8948C458.16 34.2734 458.213 33.3345 458.673 32.763C460.354 30.6708 463.422 29.8984 464.67 27.7318C465.221 26.7737 463.716 26.4166 464.093 25.019C464.718 23.669 467.132 24.6615 468.54 24.4373C470.466 24.1386 472.245 21.7969 474.345 21.3424C476.54 20.8678 478.89 21.1559 480.928 20.3744C482.145 19.9044 483.264 18.7994 484.413 18.6288C484.818 18.5703 485.962 18.8493 486.539 18.8244C487.276 18.7957 488.073 18.34 489.055 18.2426C490.478 18.1007 492.242 18.5899 494.09 18.6288C497.148 18.6971 500.057 17.7099 502.603 18.8244C503.935 19.4061 503.785 20.9165 505.504 21.533C506.37 21.8456 507.513 21.4111 508.794 21.533C510.69 21.7139 512.669 23.0238 515.181 23.2779C516.075 23.3662 516.999 23.1658 517.888 23.2779C520.654 23.6154 523.694 25.0726 526.407 25.9866C528.674 26.7541 533.479 27.7081 533.566 29.8588C533.673 32.4055 529.388 33.1492 527.565 33.1492C524.52 33.1492 520.489 31.3696 517.312 32.3768C517.36 36.7571 522.086 40.0721 526.407 39.539C526.787 37.4808 523.963 38.6251 524.276 36.6348C526.206 35.178 528.517 37.6126 531.246 37.2165C532.309 36.9285 532.13 35.3882 532.403 34.3123C534.704 32.9136 537.588 30.8611 541.113 32.3764C541.287 32.034 541.547 31.775 541.89 31.6033C542.119 29.4771 539.567 28.3676 540.921 26.3724C541.596 24.9986 545.204 25.4732 545.759 26.568C546.038 27.8783 544.865 27.7364 544.982 28.8908C545.667 30.4352 547.246 30.6795 548.082 30.6357C549.982 30.5334 550.358 28.8323 552.148 27.9229C552.87 27.5559 553.931 27.517 554.854 27.1497C555.95 26.7152 556.878 25.8348 557.757 25.6004C558.402 25.4297 559.376 25.6004 560.274 25.4048C561.418 25.1606 562.625 24.2413 563.564 24.2462C564.732 24.2462 565.566 25.5951 567.047 25.7956C567.854 25.9031 568.773 25.3361 569.951 25.2138C570.899 25.1107 571.88 25.3259 572.659 25.2138C574.506 24.945 575.776 23.9722 577.305 24.0507C578.386 24.1092 580.238 25.5657 580.981 24.828C582.233 23.5856 579.31 22.6622 580.213 21.5326C583.179 21.7573 586.333 21.6886 589.309 22.1144C593.731 22.7449 597.894 24.9352 601.883 25.0186C601.507 22.3296 598.427 23.102 597.045 21.9238C596.624 21.5617 594.894 18.7266 594.919 17.8564C594.929 17.4207 597.109 13.6958 597.627 13.2114C599.332 11.6081 604.928 11.6183 606.526 13.789C607.621 15.2749 607.258 17.514 608.847 17.4694C610.216 17.4306 610.943 14.0669 612.527 13.9835C613.837 13.9151 614.501 16.1402 615.816 16.1153C617.419 16.0817 618.534 13.094 620.656 13.0155C621.799 12.9721 622.18 13.6022 623.943 13.7887C625.155 13.0106 623.539 11.9841 624.139 10.8844C626.303 9.3102 631.245 10.5073 634.006 9.52954C634.778 8.61028 633.023 7.9602 633.815 7.01151C636.2 5.34477 640.208 5.19301 644.269 4.49914C646.752 4.0733 649.092 2.34843 651.037 2.17175C653.071 1.99092 655.011 3.3647 656.843 3.33488C657.958 3.316 659.253 2.9785 660.329 2.56286C661.417 2.13778 662.161 1.08186 663.235 0.817981C664.932 0.401959 667.077 1.01844 669.041 0.817981C671.118 0.607705 672.952 -0.199424 674.456 0.0459616C675.863 0.270583 676.993 1.77121 678.327 1.98149C682.403 2.6176 686.611 1.36991 690.324 2.36768C690.989 2.54889 691.658 3.23823 692.455 3.53156C694.943 4.44062 696.638 4.15711 697.103 7.20781C699.058 7.90169 700.206 9.6964 702.519 10.3068C704.062 10.7127 705.616 10.1113 707.356 10.1113C709.643 10.1113 712.57 10.1996 714.515 10.4975C715.625 10.6693 716.539 11.4858 717.614 11.6617C718.396 11.7886 719.432 11.5783 720.321 11.6617C721.533 11.7739 722.622 12.2729 723.61 12.2431C725.639 12.1797 727.178 10.3703 728.834 10.1113C729.725 9.97501 730.908 10.4288 731.737 10.4975C734.998 10.7723 738.756 10.0728 741.415 10.6938C742.836 11.0256 745.266 12.5904 746.835 13.7887C747.973 14.6581 748.662 16.0421 749.736 16.6921C750.754 17.3086 753.333 18.4132 754.384 18.2426C755.621 18.047 755.674 16.6684 756.896 16.1157C760.738 15.2602 767.55 17.3384 770.64 15.9201C771.836 15.3682 771.601 14.1016 772.575 13.4028C778.381 13.1193 784.167 13.6422 789.606 13.789C791.517 13.8427 793.492 13.2998 795.222 13.5976C797.137 13.931 798.534 15.8518 800.441 16.5019C801.711 16.9326 803.949 16.7076 805.861 17.0836C807.144 17.3335 808.196 18.1059 809.148 18.243C811.217 18.5359 813.191 18.0127 815.155 17.8568C819.593 17.4996 825.297 17.2652 829.669 19.0203C831.997 19.9543 832.973 21.8411 835.47 22.1152C839.048 22.5112 844.586 21.8214 848.246 22.1152C849.12 22.1888 849.937 22.5501 850.567 22.5014C851.794 22.4134 852.541 21.3718 854.052 21.3431C855.967 21.2993 859.017 24.33 861.798 23.8604C862.995 23.0491 860.834 21.92 861.982 21.1476C863.073 20.2423 864.563 21.1374 866.245 21.1476C867.159 21.1566 868.284 20.6829 869.148 20.7614C871.274 20.9464 873.293 22.8589 875.92 23.4693C878.007 23.9586 880.877 24.1394 883.471 23.8604C885.329 23.6558 886.923 23.0295 888.695 23.2787C889.552 23.3964 890.314 24.0171 891.208 24.2474C892.034 24.4569 892.84 24.2564 893.53 24.438C894.175 24.6136 894.815 25.2202 895.469 25.406C899.065 26.4373 903.855 26.9455 907.662 28.1195C909.9 28.8085 912.188 30.197 914.049 30.2457C914.965 30.2752 915.779 29.8497 916.952 29.8595C922.798 29.8992 929.675 32.3338 929.137 37.799C922.295 39.2997 916.571 33.0865 909.398 34.8956C908.255 35.1836 906.983 36.44 907.08 37.6035C907.346 40.977 915.844 40.6935 916.557 43.9937C915.165 45.036 913.644 44.0522 912.496 44.1893C910.751 44.3946 907.81 46.238 906.69 47.2841C905.38 48.5118 904.232 51.655 902.82 51.9332C901.09 52.2707 898.45 50.2269 895.851 50.7701C894.897 50.9706 893.984 52.1586 893.144 52.3194C891.008 52.7253 888.29 51.1563 886.957 53.6743C887.66 55.4441 887.231 57.9086 888.696 58.9011C889.639 59.5462 890.822 59.0472 891.985 59.482C893.344 59.9909 894.096 61.6486 895.269 62.5818C896.233 63.3403 897.258 63.3599 897.791 64.3229C897.913 65.7503 897.223 65.907 897.4 66.8402C897.704 68.4639 900.241 68.8312 900.303 69.9358C900.391 71.3342 898.705 71.0355 898.373 72.4531C898.251 73.3535 899.414 73.5925 899.531 74.776C899.609 75.568 898.891 76.3936 898.954 77.294C899.038 78.5844 900.054 79.4447 899.917 80.5844C899.805 81.5622 898.954 82.3244 898.172 82.7155C894.468 80.3353 891.131 77.0539 887.142 74.0036C883.061 70.8743 876.591 67.032 875.921 60.4511C875.898 59.4435 878.057 58.6515 878.435 57.1607C878.59 56.5491 878.194 55.679 878.243 54.8382C878.38 52.5652 880.257 50.3798 880.183 49.0305C880.091 47.5488 877.329 44.7963 875.921 44.3807C874.797 44.9722 875.907 46.1455 875.726 47.0942C875.502 48.2627 874.085 49.69 872.823 49.8029C869.163 50.1204 868.752 45.0851 862.951 46.5125C861.45 46.8836 859.34 49.1479 859.858 51.934C860.018 52.7796 862.345 53.6898 862.179 54.8382C862.017 55.953 856.905 56.2803 855.79 56.1931C852.668 55.9432 851.062 53.6064 848.246 53.6751C846.864 53.7091 845.651 54.8333 844.566 55.0289C838.471 56.1437 829.425 52.0276 827.349 57.3514C827.05 58.1049 827.217 59.0872 826.958 59.8698C826.581 60.9895 825.691 61.8687 825.409 62.5826C825.173 63.1794 825.213 64.3573 824.827 65.2913C824.475 66.1369 820.815 69.442 824.055 70.3273C824.827 70.5327 825.188 69.9951 826.186 70.1318C827.847 70.356 830.613 73.0262 832.567 73.0352C833.735 73.0402 835.353 71.7211 836.244 71.6811C838.037 71.5935 839.332 72.7521 840.694 73.4222C841.996 74.0625 843.985 75.4072 844.957 75.3577C846.784 75.2652 845.91 73.999 847.665 73.4222C851.012 74.4147 852.58 77.9633 855.79 80.78C856.955 81.7963 858.675 82.6717 860.244 84.07C861.118 84.8522 863.81 86.9493 863.924 87.9418C864.026 88.866 863.17 89.262 862.951 90.0733C862.637 91.2511 863.371 92.1172 862.565 92.9775C859.477 91.834 858.783 88.7878 856.564 86.2015C855.742 85.2388 854.916 84.0942 853.665 82.7155C853.098 82.0949 851.046 79.9143 849.789 80.3938C847.356 81.3179 851.124 85.0082 851.726 85.8153C853.011 87.5213 854.716 89.8192 854.829 91.6237C854.901 92.7771 854.076 94.8745 854.051 96.8497C854.036 98.185 854.388 99.3968 854.246 100.526C854.099 101.661 853.295 102.957 852.889 104.209C852.433 105.626 852.331 107.322 851.925 108.271C851.173 110.016 848.642 112.07 846.887 112.144C845.28 112.212 844.591 110.906 843.017 110.984C840.636 111.096 840.197 113.292 838.765 115.047C838.887 116.954 839.484 117.609 839.15 118.92C838.628 120.973 835.774 121.33 835.862 123.374C835.941 125.265 838.471 125.633 839.728 126.473C841.458 127.622 844.479 130.179 846.12 132.281C847.195 133.659 848.749 136.236 848.637 137.698C848.49 139.615 842.977 142.279 840.694 141.57C838.53 140.9 839.273 138.832 838.764 136.926C838.368 135.459 837.221 134.829 836.64 133.636C836.33 133.009 836.472 132.018 836.053 131.313C834.885 129.343 832.846 130.418 830.436 129.181C828.859 128.37 829.318 126.664 828.698 125.114C827.866 123.031 824.358 122.049 821.542 122.601C819.47 123.001 818.825 124.742 816.894 125.114C814.055 123.432 817.476 119.281 813.993 118.92C811.324 118.641 809.554 122.752 807.99 123.955C806.934 124.762 805.019 124.928 804.897 126.082C804.668 128.218 807.15 127.784 809.148 128.6C810.962 129.343 811.172 131.397 812.828 131.504C814.212 131.597 815.13 130.076 816.504 129.954C818.883 129.744 820.815 130.815 822.309 131.699C821.342 134.046 816.131 135.767 816.117 138.862C816.108 140.656 818.195 140.965 819.797 142.152C821.146 143.155 822.926 145.985 824.826 147.96C825.648 148.811 826.977 149.373 827.348 149.897C828.242 151.178 828.1 152.737 829.083 153.578C829.249 154.639 828.6 154.898 828.697 155.9C829.175 157.293 831.316 157.029 831.795 158.418C831.399 161.757 832.788 164.901 830.055 166.162C828.794 172.151 827.373 176.835 823.282 180.101C819.602 183.03 814.744 183.895 810.312 185.328C809.162 185.699 808.244 186.911 807.218 187.264C804.643 188.139 800.057 187.606 799.867 190.749C799.76 192.3 801.832 193.234 801.993 194.812C802.237 197.238 800.068 199.676 798.508 199.848C797.385 199.97 794.961 199.188 794.828 197.134C794.676 194.826 797.691 193.883 797.927 192.49C798.338 190.025 795.801 187.625 792.898 187.845C790.341 188.036 784.527 193.169 784.385 195.976C784.273 198.073 788.538 202.439 789.995 203.72C795.43 208.511 801.202 211.385 800.248 223.08C798.891 226.043 795.42 226.674 792.703 228.307C790.635 229.548 789.604 233.401 786.12 233.729C784.722 233.25 785.538 231.064 785.152 230.052C784.624 228.664 781.853 227.984 780.123 226.567C778.706 225.402 778.111 223.569 777.025 222.498C775.671 221.164 773.647 220.885 771.991 219.981C770.95 219.414 770.139 217.42 769.088 217.468C767.382 217.537 767.974 219.179 767.544 221.917C767.114 224.61 765.149 226.679 765.799 229.856C766.073 231.157 767.696 232.209 768.506 233.533C769.85 235.729 770.037 238.286 771.411 239.537C772.318 240.364 773.864 240.544 774.894 241.278C776.946 242.745 780.558 245.923 781.282 247.669C782.122 249.707 781.311 252.108 781.863 254.253C782.508 256.731 785.749 258.507 783.803 261.03C781.951 260.687 780.334 259.474 778.766 258.512C776.107 256.865 774.884 255.446 773.154 252.703C772.646 251.901 771.894 251.119 771.605 250.382C770.931 248.645 771.078 246.68 770.447 244.573C769.905 242.76 767.803 239.893 766.185 238.374C764.828 237.093 762.417 236.346 762.315 234.502C762.174 231.905 763.195 228.85 763.092 225.789C763.068 225.128 762.619 224.464 762.515 223.663C762.311 222.176 762.662 220.357 762.316 219.012C761.997 217.776 761.098 216.661 760.575 215.531C760.058 214.417 759.53 213.297 759.032 211.85C758.245 209.611 757.364 205.294 755.546 205.073C753.607 204.839 751.69 208.711 749.159 208.755C747.86 208.775 746.129 207.733 745.871 206.428C745.626 205.24 746.481 204.042 746.451 202.752C746.378 200.155 744.536 199.153 743.159 197.33C742.601 196.592 742.455 195.555 741.994 195.007C741.115 193.956 739.434 193.369 738.319 192.299C737.258 191.272 736.096 189.796 735.607 188.813C734.86 187.298 734.619 185.331 733.481 185.132C732.391 184.941 731.131 186.504 729.998 186.877C728.818 187.263 725.922 187.762 724.772 187.845C720.888 188.114 717.736 187.077 718.194 191.718C717.589 193.8 715.39 193.824 713.934 194.812C712.081 196.073 710.732 198.601 708.71 200.62C707.727 201.607 706.305 202.224 705.421 203.138C704.682 203.9 704.453 205.123 703.676 205.851C701.612 207.802 698.515 207.968 697.103 210.691C697.02 213.908 698.622 216.343 698.261 219.398C698.094 220.792 697.053 222.029 696.903 223.467C696.781 224.698 697.41 226.023 697.103 227.339C696.932 228.042 696.15 228.414 695.549 229.275C695.012 230.047 694.795 231.074 694.396 231.597C693.741 232.433 692.671 233.015 692.064 233.729C691.082 234.893 690.876 235.723 689.938 235.86C685.697 236.471 684.651 228.4 682.779 225.016C681.913 223.462 680.155 222.058 679.294 220.177C678.303 218.006 677.999 215.282 676.582 212.818C675.38 210.715 673.719 208.609 672.907 206.428C672.218 204.585 671.622 202.277 670.972 200.234C670.283 198.073 669.536 195.354 669.423 193.653C669.262 191.14 669.907 189.59 667.873 188.618C666.008 189.058 665.177 190.94 663.035 190.94C660.972 190.94 655.427 187.361 657.043 184.163C655.69 182.247 652.284 181.197 649.685 178.937C648.198 177.642 646.854 174.556 644.269 174.293C643.555 174.22 642.627 174.621 641.944 174.679C640.306 174.821 637.402 174.533 635.555 174.679C633.234 174.865 630.366 175.388 627.428 175.066C625.536 174.86 623.186 174.494 621.236 174.293C618.759 174.038 615.464 173.452 614.081 172.161C613.221 171.369 612.875 168.832 611.364 168.485C609.571 168.069 608.583 169.458 606.917 169.839C603.369 170.651 600.408 169.111 598.012 167.516C596.313 166.387 594.762 165.801 593.561 164.999C590.619 163.029 590.091 157.103 585.624 157.059C584.07 157.045 581.597 158.017 581.367 159.772C581.215 161.005 582.838 163.293 583.498 164.227C585.668 167.287 589.655 168.436 590.853 172.548C591.654 172.86 593.287 171.844 594.142 172.743C594.89 174.508 594.132 177.783 595.882 178.552C603.926 179.881 606.222 175.471 609.82 172.357C611.906 173.721 611.217 174.914 611.946 176.42C612.688 177.964 613.851 179.177 615.235 179.715C616.207 180.086 617.454 179.74 618.915 180.292C619.829 180.639 623.644 184.252 623.758 185.524C623.855 186.662 621.251 190.539 620.459 191.522C619.692 192.481 618.504 192.979 618.138 193.844C617.865 194.515 617.952 195.937 617.751 196.362C617.394 197.135 615.656 198.142 614.653 199.071C613.598 200.059 612.366 200.826 611.364 201.588C610.142 202.527 609.385 203.818 608.075 204.302C605.5 205.251 603.051 204.845 600.916 206.238C599.518 207.147 599.512 209.2 597.822 210.301C596.053 211.45 593.027 211.459 590.462 212.627C588.816 213.376 587.828 214.828 586.406 215.336C585.823 215.541 585.096 215.366 584.466 215.532C583.179 215.859 581.992 216.773 580.786 217.077C579.832 217.321 578.821 217.199 577.883 217.468C574.902 218.329 572.171 221.36 569.174 219.595C567.761 216.334 567.532 212.227 565.884 209.333C565.045 207.856 563.392 207.402 562.792 205.851C562.708 204.606 564.209 204.947 564.336 203.916C563.843 201.824 561.868 200.846 560.661 199.071C560.069 198.206 559.797 196.973 559.112 195.976C556.804 192.618 552.255 190.872 551.369 186.682C551.13 185.543 551.409 184.648 551.18 183.778C550.798 182.345 549.83 180.839 548.854 179.715C548.115 178.854 546.605 178.268 545.759 177.002C545.197 176.166 545.075 174.988 544.596 174.098C542.671 170.504 539.885 167.331 536.855 164.804C535.277 165.033 533.581 165.141 532.794 166.163C533.581 168.695 534.789 170.817 536.083 172.939C537.266 174.87 538.947 176.953 539.758 179.133C540.062 179.94 540.007 180.996 540.34 181.842C541.556 184.912 545.383 185.856 546.145 189.395C546.659 191.767 546.033 193.409 546.727 195.78C547.392 198.058 550.754 199.403 552.147 201.588C553.28 203.373 553.29 205.896 554.082 207.592C555.24 210.075 558.479 211.151 560.855 212.819C562.986 214.32 564.512 216.632 566.27 218.24C567.306 219.179 568.73 219.35 568.982 220.372C569.31 221.682 568.431 222.122 568.205 223.271C569.691 224.821 571.138 227.681 573.625 227.921C574.648 228.018 575.938 226.987 577.496 226.757C578.283 226.645 579.163 226.88 579.817 226.757C580.848 226.571 581.747 225.652 582.92 225.403C584.896 224.978 587.187 225.149 589.69 224.821C592.055 224.512 593.683 222.513 595.496 223.08C597.485 225.266 596.058 227.745 595.496 229.856C595.299 230.6 595.299 231.367 595.115 231.988C594.069 235.435 591.332 237.987 590.076 241.086C589.69 242.035 589.757 243.2 589.308 244.182C587.867 247.286 584.861 250.346 582.529 252.894C581.215 254.327 580.057 255.622 578.66 256.766C577.272 257.909 575.575 258.531 574.011 259.67C570.914 261.939 567.687 265.19 565.498 268.191C564.652 269.355 564.248 270.694 563.367 271.678C562.107 273.086 560.158 273.78 559.111 275.163C558.285 276.254 557.737 278.229 556.789 280.194C555.725 282.409 553.5 283.906 553.888 286.97C554.033 288.143 555.084 288.873 555.437 290.071C556.037 292.133 555.577 293.869 555.24 296.069C556.336 298.724 557.122 301.677 559.111 303.426C559.351 307.344 558.788 311.146 559.111 314.461C559.316 316.573 560.138 318.129 559.306 320.074C558.574 321.789 555.763 324.807 554.082 325.881C552.255 327.061 549.459 327.368 547.499 328.792C546.137 329.778 545.007 331.51 543.628 332.668C541.347 334.571 538.219 336.349 538.018 338.28C537.901 339.39 538.894 341.072 539.176 342.148C539.933 345.008 540.667 349.12 539.372 352.214C537.969 355.564 530.874 354.869 530.082 358.408C529.842 359.484 530.556 360.344 530.469 361.509C530.399 362.495 529.104 366.055 528.532 367.121C527.678 368.725 525.733 369.443 524.471 370.803C522.888 372.519 522.086 375.002 520.405 376.801C518.124 379.255 515.04 381.842 512.084 383.964C509.512 385.822 504.899 387.747 500.863 388.031C498.512 388.198 495.99 387.479 493.508 387.84C492.599 387.967 491.612 388.803 490.409 389C489.711 389.112 488.997 388.878 488.283 389C487.067 389.205 485.928 390.173 484.799 390.163C482.292 390.134 479.071 387.142 478.993 384.163C478.964 383.015 479.976 381.924 479.961 380.868C479.941 379.632 478.425 378.081 477.248 375.833C476.119 373.672 475.674 371.223 474.54 369.452C473.339 367.566 471.75 366.67 470.865 365.188C469.081 362.212 468.95 358.687 468.349 355.118C468.153 353.955 467.357 352.692 467.185 351.245C466.975 349.466 467.4 347.491 466.994 346.019C466.682 344.885 465.425 343.732 464.669 342.339C463.305 339.829 462.347 336.549 461.188 334.598C460.099 332.77 457.9 330.864 457.704 328.792C457.572 327.382 457.88 324.757 458.09 323.369C458.3 322.01 459.307 320.934 459.639 319.501C459.859 318.548 459.596 317.453 459.83 316.402C460.817 311.972 465.695 310.36 465.059 304.977C464.786 302.693 463.173 301.568 462.928 298.972C462.816 297.759 463.535 296.695 463.51 295.487C463.476 293.853 462.093 291.424 461.379 289.873C459.419 285.601 458.217 281.695 455.383 278.453C453.839 276.684 451.815 275.436 450.544 273.803C449.503 272.475 448.238 269.984 448.218 268.964C448.198 267.859 449.068 267.169 449.381 266.059C449.787 264.631 449.816 261.928 450.349 259.669C450.593 258.633 451.713 256.125 451.512 254.443C451.316 252.824 448.907 249.721 446.864 249.217C444.161 248.548 441.381 250.082 437.965 249.798C435.022 247.934 435.241 243.06 430.995 242.439ZM538.016 311.751C538.911 310.328 540.035 306.329 538.016 305.36C537.884 305.36 537.757 305.36 537.63 305.36C536.766 306.969 535.847 310.852 538.016 311.751ZM535.304 271.285C535.959 269.945 537.493 268.528 537.239 266.836C536.681 263.105 529.707 264.944 528.922 267.609C528.388 269.402 529.239 270.825 528.53 272.643C529.292 274.076 531.203 274.359 533.564 274.19C534.869 273.617 534.707 272.516 535.304 271.285ZM523.502 291.232C524.27 289.809 522.28 288.88 521.954 287.356C521.571 285.57 522.387 283.473 520.789 282.514C520.6 282.514 520.403 282.514 520.214 282.514C518.809 285.687 520.794 290.923 523.502 291.232ZM655.486 98.9762C654.759 97.5141 652.667 99.4062 653.556 100.722C654.866 100.805 655.336 100.047 655.486 98.9762ZM610.398 106.916C613.535 106.309 610.433 101.294 608.072 101.88C604.99 102.652 608.259 107.327 610.398 106.916ZM596.076 131.888C597.043 125.176 591.813 124.672 590.85 119.886C591.295 119.945 591.065 119.328 591.432 119.305C592.702 118.693 594.624 120.282 595.297 118.728C595.312 116.434 592.404 114.724 589.491 115.824C588.651 115.246 588.539 113.941 588.333 112.724C586.139 111.418 580.709 108.563 580.783 105.947C580.846 103.796 583.622 102.589 586.784 102.657C588.118 101.646 587.259 98.5361 586.012 97.8165C581.007 96.7217 578.34 97.4601 575.171 99.7532C573.652 100.853 571.957 101.611 571.106 102.271C570.324 102.877 569.278 104.535 569.367 105.366C569.489 106.564 571.205 107.268 571.884 108.852C572.231 109.668 572.157 110.69 572.465 111.37C573.311 113.237 575.475 114.445 577.108 116.014C578.261 117.124 581.496 119.529 581.56 120.854C581.62 121.958 580.567 122.203 580.211 123.372C579.845 124.516 579.424 127.219 579.63 128.212C580.054 130.339 582.255 130.412 584.267 131.312C586.266 132.202 588.193 133.776 590.268 133.825C592.483 133.884 594.839 133.175 596.076 131.888ZM550.595 117.95C555.84 117.002 553.445 112.568 550.786 110.984C548.772 109.782 546.364 108.735 544.013 107.302C542.649 106.471 537.468 104.902 537.435 103.24C537.395 101.421 541.29 100.825 539.756 97.6225C537.107 96.9773 530.807 97.9936 531.243 100.913C531.492 102.599 533.492 101.665 533.95 103.43C532.055 104.105 529.747 105.875 527.758 105.562C525.388 105.191 524.777 102.276 523.502 100.526C521.66 100.585 520.448 98.7414 518.277 98.9762C516.001 99.2254 514.793 102.531 513.63 104.208C513.013 105.087 512.032 105.542 511.694 106.334C511.494 106.813 511.714 107.576 511.504 108.271C510.839 110.422 508.977 111.209 509.177 113.11C509.358 114.787 511.181 115.54 511.31 116.983C511.181 118.469 508.796 117.696 508.987 119.501C512.451 122.36 512.642 118.151 514.407 117.564C515.824 117.09 518.606 117.955 520.403 117.564C521.855 117.247 522.998 115.863 524.66 115.243C525.677 114.861 526.933 114.523 528.341 114.465C534.498 114.211 538.472 118.219 543.822 118.337C545.59 118.376 548.759 118.282 550.595 117.95ZM538.207 140.797C538.314 138.719 537.415 137.154 537.239 134.216C533.666 132.06 530.998 136.216 527.372 135.761C525.144 135.482 523.545 132.886 521.18 133.248C519.875 133.444 519.23 135.13 517.886 135.374C515.12 135.883 513.859 133.16 510.922 134.216C506.779 131.058 504.926 125.914 503.953 120.082C501.697 117.119 498.252 119.529 496.6 121.436C495.583 121.427 494.313 120.874 494.088 122.018C493.325 125.597 499.146 125.978 499.116 128.408C499.097 129.987 496.844 129.841 495.828 130.921C494.747 132.069 495.466 133.092 494.088 133.825C490.271 134.285 489.005 132.197 489.053 128.794C487.406 126.291 485.325 124.467 483.829 122.405C483.277 121.642 482.451 120.453 482.281 119.305C482.143 118.401 482.71 117.252 482.476 116.21C482.055 114.362 478.614 112.968 476.474 111.952C474.188 110.862 471.323 109.83 469.701 108.466C468.552 107.498 468.01 105.816 466.993 105.176C466.128 104.633 465.053 104.745 464.281 104.208C463.22 103.465 463.396 102.227 461.96 101.88C461.231 101.612 460.107 102.604 459.638 103.24C458.695 107.464 462.13 107.752 463.699 109.625C464.779 110.911 465.316 112.847 466.412 113.692C467.58 114.596 469.168 114.431 470.668 115.046C471.705 115.472 472.378 116.763 473.375 117.369C475.223 118.493 478.189 118.689 478.41 120.855C477.261 121.637 474.656 119.715 473.766 121.632C473.537 122.889 474.763 123.535 474.735 124.727C474.685 126.634 472.569 128.722 470.668 128.409C470.477 127.274 471.68 126.346 471.636 125.114C471.553 122.65 466.602 118.89 464.091 117.76C462.912 117.228 461.481 117.199 460.41 116.597C458.509 115.526 455.181 112.896 454.023 111.371C452.639 109.537 451.457 106.145 448.412 106.335C447.171 106.413 446.144 107.552 445.123 108.081C444.194 108.554 443.169 108.995 442.22 109.625C441.091 110.373 440.172 111.131 439.121 111.175C436.693 111.278 434.63 109.371 432.543 109.821C431.84 109.973 431.253 110.603 430.413 111.371C430.383 112.5 430.75 113.223 430.608 114.465C429.978 115.555 428.107 115.487 426.738 116.21C424.734 117.266 422.951 119.437 421.318 121.05C420.267 122.086 419.32 122.942 419.188 123.759C419.085 124.399 419.73 125.612 419.579 126.473C419.407 127.407 417.653 129.342 416.48 130.149C415.796 130.618 414.887 130.682 414.159 131.117C412.633 132.021 411.95 133.2 410.674 133.439C407.292 134.07 401.144 132.76 401.193 136.344C401.222 138.738 404.453 138.748 406.417 138.665C409.154 138.558 411.48 139.248 412.996 138.861C414.041 138.597 415.184 137.424 416.284 136.925C416.978 136.613 417.697 136.608 418.22 136.344C419.378 135.762 420.033 134.818 420.932 134.407C422.701 133.6 425.995 132.97 427.896 132.858C430.506 132.706 433.233 133.127 436.606 132.858C437.807 132.765 438.995 131.992 440.286 131.889C442.392 131.723 445.162 132.721 446.863 132.667C448.042 132.628 449.356 131.483 450.733 131.503C452.293 131.528 453.935 132.638 454.218 133.635C454.38 134.202 453.891 135.106 454.023 135.958C454.248 137.365 455.455 137.947 455.382 138.861C455.278 140.074 452.259 141.692 452.669 143.12C452.938 144.038 455.103 144.997 456.154 145.637C457.253 146.307 459.11 147.236 460.41 147.378C461.505 147.499 462.473 147.074 463.509 147.187C465.176 147.367 467.873 148.38 468.929 149.122C470.746 150.404 470.492 152.456 472.604 153.185C473.503 153.498 475.125 153.322 476.279 153.577C479.099 154.187 481.19 156.525 483.248 156.285C486.488 155.909 485.012 152.853 485.379 150.673C486.204 145.73 495.856 145.954 497.762 149.313C499.175 149.69 500.411 149.372 502.019 149.896C502.948 150.198 503.641 151.215 504.535 151.445C505.21 151.616 506.191 151.347 507.052 151.445C510.762 151.865 514.124 154.628 517.311 154.154C519.332 153.855 520.799 151.953 522.725 151.831C526.428 151.602 528.799 154.588 532.792 153.185C535.73 152.154 535.075 149.109 536.081 146.023C536.78 143.877 538.128 142.415 538.207 140.797ZM746.832 74.7756C747.6 72.3112 746.407 69.8226 744.896 68.1947C742.663 68.5809 744.276 70.9034 744.124 72.2625C743.905 74.184 741.866 75.5189 741.993 77.4892C741.251 78.359 739.981 78.701 739.868 80.1971C741.099 81.0488 741.637 79.5281 742.575 78.6478C744.057 77.2589 746.32 76.4378 746.832 74.7756ZM696.128 7.59552C693.998 7.59552 693.195 8.43663 691.872 9.14523C691.143 9.53142 689.662 9.74699 690.132 10.8863C691.989 10.661 695.684 9.82022 696.128 7.59552ZM614.461 31.4103C619.01 32.4704 621.146 27.332 618.135 24.4388C617.431 23.7638 615.056 23.4999 614.078 21.9256C612.892 20.0332 613.057 17.5061 610.203 18.0535C610.174 18.2781 610.238 18.6005 610.007 18.6303C609.74 22.8638 615.901 23.9299 615.813 27.3422C615.771 29.1317 613.878 29.3223 614.461 31.4103Z" fill="#6087A4"/>
<path d="M550.784 24.0525C550.222 21.9592 554.19 22.2967 553.496 24.248C552.876 24.8294 551.18 24.78 550.784 24.0525Z" fill="#6087A4"/>
<path d="M526.984 139.829C527.073 138.23 530.719 137.643 531.431 139.057C531.192 140.611 527.733 141.681 526.984 139.829Z" fill="#6087A4"/>
<path d="M460.605 129.376C462.623 127.743 467.114 128.848 469.895 128.794C469.372 130.276 469.294 132.197 468.151 133.053C464.979 132.48 462.022 131.698 460.605 129.376Z" fill="#6087A4"/>
<path d="M446.477 119.114C449.136 116.337 451.925 117.804 450.929 123.177C450.293 124.78 447.527 126.922 446.281 124.536C446.707 122.659 446.526 121.275 446.477 119.114Z" fill="#6087A4"/>
<path d="M450.347 112.92C450.567 114.557 449.883 115.291 448.993 115.824C446.442 115.373 448.382 110.793 450.347 112.92Z" fill="#6087A4"/>
<path d="M412.804 73.617C413.028 72.5117 412.163 71.1379 411.059 70.5172C410.424 70.1601 409.451 70.3266 408.737 69.9359C406.851 68.8988 406.167 66.7379 405.063 66.2592C405.204 64.1372 404.481 62.6019 405.063 61.2232C405.415 60.3874 407.955 58.0264 409.32 57.5465C411.01 56.9501 412.779 57.4831 413.772 56.1924C414.216 56.129 414.515 56.2215 414.739 56.383C414.73 57.6047 413.703 57.8055 413.576 58.9011C413.815 60.6607 416.914 59.5602 417.251 61.2228C416.957 63.0322 415.33 63.3886 415.316 64.7088C415.31 65.8572 417.662 68.0385 418.801 69.5497C419.65 70.669 421.136 71.4999 421.898 72.6487C422.563 73.651 422.71 74.8443 423.252 75.3574C424.269 76.3212 426.565 76.482 426.737 77.8754C426.961 79.7237 424.44 80.4519 424.801 82.5196C422.143 84.6069 417.71 83.5272 413.38 84.0697C411.42 84.3188 409.26 86.2695 407.188 84.6514C406.709 83.3513 408.908 83.1746 409.124 81.9428C408.972 80.7993 407.525 80.9601 407.188 80.0061C407.75 78.5002 409.504 78.1925 409.319 75.9384C410.399 74.7609 412.476 75.206 412.804 73.617Z" fill="#6087A4"/>
<path d="M398.29 68.9672C400.875 67.3881 405.39 68.5957 405.64 70.5173C405.83 71.9696 404.267 72.1799 403.704 73.8077C403.201 75.2887 403.802 77.0487 403.128 78.071C402.536 78.9551 400.928 78.9015 399.834 79.2292C397.4 79.9578 392.699 82.8182 390.738 79.6154C391.022 77.9 392.684 77.5576 393.256 76.1343C393.289 75.0146 392.098 74.4238 392.288 73.2309C392.522 71.7687 393.623 72.272 395.191 71.6804C396.329 71.2459 396.818 69.8672 398.29 68.9672Z" fill="#6087A4"/>
<path d="M266.109 26.9558C266.514 28.6769 261.016 30.9261 260.493 28.7018C260.078 26.9222 264.706 24.6975 266.109 26.9558Z" fill="#6087A4"/>
<path d="M259.72 463.339C258.752 463.339 257.785 463.339 256.817 463.339C257.34 463.023 259.198 463.023 259.72 463.339Z" fill="#6087A4"/>
<path d="M251.012 13.2129C251.262 12.9442 251.926 12.9442 252.176 13.2129C251.985 13.6675 251.834 14.1616 251.012 13.985C251.012 13.726 251.012 13.467 251.012 13.2129Z" fill="#6087A4"/>
<path d="M233.789 43.9941C233.829 45.0602 229.944 46.8251 229.528 44.7672C229.46 44.4048 229.548 43.6815 230.305 43.2217C231.336 42.5867 233.75 42.948 233.789 43.9941Z" fill="#6087A4"/>
<path d="M153.279 223.852C153.177 224.14 152.992 224.34 152.893 224.629C150.836 224.555 152.693 221.925 153.279 223.852Z" fill="#6087A4"/>
<path d="M74.7045 88.5236C76.063 87.7316 77.3634 89.7166 76.4495 90.6547C74.9536 90.9435 74.5724 89.2322 74.7045 88.5236Z" fill="#6087A4"/>
<path d="M285.652 95.6858C284.748 95.4605 283.517 95.505 282.363 95.2996C281.376 95.123 280.203 94.8304 279.27 94.7179C276.88 94.434 274.295 95.129 272.882 93.7499C275.184 90.689 278.243 87.6727 281.204 85.0373C282.084 84.2501 283.975 83.7122 283.526 82.133C281.879 80.686 279.856 82.2214 278.301 83.101C276.669 84.0198 274.725 85.3449 272.881 85.619C269.68 86.0935 265.434 84.6801 262.82 86.3914C262.458 87.8535 265.795 87.2865 265.332 89.4912C264.051 89.7018 262.84 89.8041 261.852 88.9094C260.953 88.0985 261.466 86.8807 260.884 86.3914C259.892 85.5703 256.163 85.3453 254.497 85.619C252.464 85.9516 250.666 87.1683 250.431 88.9094C252.874 90.0537 256.902 87.7312 257.786 90.6543C256.447 93.0651 253.294 94.3902 253.72 97.6221C253.886 98.8679 255.367 100.535 256.432 100.722C257.502 100.908 258.104 99.8468 259.14 99.9438C260.234 100.047 259.985 101.299 261.27 101.108C263.132 100.311 264.163 97.6946 266.299 97.8165C268.86 100.926 263.987 102.442 261.27 103.429C258.171 104.554 254.145 105.151 251.784 106.143C250.549 106.661 245.867 111.189 245.207 107.687C244.732 105.165 247.523 105.894 248.11 103.815C245.113 103.234 242.322 105.106 239.596 106.143C235.706 107.615 229.113 108.548 228.175 112.919C227.989 113.793 228.556 115.432 227.984 116.014C227.52 116.484 224.744 116.566 223.532 116.982C221.665 117.622 220.037 118.991 218.885 119.304C218.014 119.544 216.729 119.475 216.177 119.695C214.638 120.292 214.07 122.374 212.307 123.758C211.584 124.325 209.98 124.735 209.404 125.307C208.402 126.305 208.27 128.803 206.501 129.179C205.377 129.277 204.463 128.333 203.403 128.984C203.276 131.453 204.272 134.812 203.212 137.31C200.92 139.177 198.403 140.502 195.471 142.15C193.848 143.064 192.396 143.299 190.437 144.282C189.049 144.976 187.779 146.629 186.18 147.572C182.486 149.748 178.024 152.325 178.053 157.834C178.058 159.027 178.674 160.313 178.825 161.707C178.918 162.527 178.727 163.329 178.825 164.225C179.055 166.248 180.521 168.825 178.825 170.223C176.22 169.152 172.907 168.791 171.084 166.934C170.586 165.021 172.091 163.448 171.862 161.707C171.676 160.309 169.711 157.82 168.568 157.639C167.39 157.453 166.304 158.705 165.088 158.607C163.641 158.495 162.297 156.5 160.44 156.285C157.718 155.967 155.714 156.906 152.699 156.48C149.781 158.04 148.926 160.818 145.348 160.543C144.087 160.45 142.934 159.488 141.478 159.189C139.9 158.861 137.505 158.304 135.863 158.417C132.569 158.636 130.179 161.007 127.35 162.479C124.853 163.779 121.319 165.398 120.577 168.097C120.171 169.549 120.513 171.593 119.995 172.937C119.653 173.821 118.905 174.609 118.445 175.45C116.275 179.414 114.478 184.656 116.124 190.361C116.369 191.206 118.524 195.978 119.412 196.942C120.411 198.013 123.347 199.62 125.023 199.65C126.44 199.679 128.103 198.932 129.476 198.682C131.068 198.398 133.063 198.374 134.509 197.909C138.692 196.57 137.866 190.909 142.054 189.002C143.882 188.175 145.998 188.009 149.214 187.842C150.236 188.704 150.714 190.209 150.572 191.519C150.465 192.507 149.527 193.402 149.024 194.81C148.584 196.047 148.491 197.494 148.056 198.491C147.48 199.797 146.194 200.75 145.735 201.977C145.432 202.773 145.598 203.766 145.348 204.49C144.904 205.766 143.199 206.665 143.99 207.976C148.134 209.623 153.148 207.506 156.765 208.171C158.29 208.45 161.437 210.274 161.408 212.625C161.388 214.385 160.048 215.539 159.858 217.465C159.624 219.89 158.612 222.858 158.505 224.818C158.334 228.03 163.215 233.575 166.632 233.53C170.312 233.481 172.457 229.869 176.89 231.79C178.361 232.425 179.915 234.811 181.537 234.694C182.877 234.597 184.9 232.25 185.794 230.627C186.884 228.647 186.962 226.979 188.888 225.982C190.965 224.907 192.617 225.425 195.275 224.433C196.463 223.992 197.494 223.235 198.564 222.496C199.503 221.851 200.49 220.16 201.663 221.333C203.207 222.878 199.772 223.748 201.081 225.4C203.764 226.824 205.137 222.755 207.083 222.692C207.703 222.672 209.849 223.9 210.953 224.628C212.463 225.621 212.976 227.013 214.628 227.337C215.689 227.548 217.394 226.931 218.885 227.141C220.859 227.425 222.037 229.121 223.532 229.077C225.355 229.028 226.23 227.043 227.789 226.754C231.205 226.129 232.475 227.136 233.981 229.272C235.666 229.566 235.725 227.322 237.269 228.114C236.424 229.801 237.558 230.578 238.237 231.986C238.677 232.89 238.603 233.53 239.014 233.922C239.938 234.802 241.722 234.802 243.075 235.663C244.502 236.563 245.308 238.234 246.946 240.117C248.632 242.043 251.466 244.037 253.719 244.179C255.845 244.316 257.574 243.577 259.335 243.793C263.337 244.287 265.824 246.287 268.624 248.443C270.189 249.645 271.6 250.481 272.104 251.923C272.456 252.93 272.285 254.28 272.686 255.41C273.542 257.819 277.055 258.983 275.785 263.154C276.366 264.375 277.671 264.816 279.073 265.671C280.197 266.36 281.146 267.798 282.362 267.994C283.149 268.121 284.005 267.758 284.684 267.798C286.883 267.954 288.394 268.806 290.299 269.544C291.482 269.999 292.997 270.179 293.784 270.712C294.766 271.372 294.893 273.601 296.105 274.189C296.897 274.573 298.657 274.042 299.975 274.189C302.053 274.433 304.873 275.703 306.749 275.743C307.888 275.766 308.832 275.272 309.842 275.352C314.583 275.718 317.271 281.389 321.845 283.096C323.262 283.629 325.511 283.257 326.488 283.678C328.204 284.421 329.65 289.672 329.777 291.998C330.168 299.034 324.767 301.292 321.65 305.942C320.999 306.915 320.638 308.455 319.714 309.814C317.857 312.547 315.791 313.115 316.039 318.139C316.108 319.519 316.811 320.863 316.811 322.398C316.811 324.271 316.65 326.719 316.23 328.401C315.912 329.683 314.852 330.723 314.681 331.888C314.51 333.066 315.028 333.981 314.877 334.987C314.71 336.103 313.596 337.677 312.745 339.241C310.956 342.546 310.566 346.432 306.939 347.757C304.809 348.54 301.92 348.104 299.589 348.921C298.646 349.254 297.454 350.124 296.295 350.662C292.929 352.231 288.128 354.348 287.2 357.825C286.374 360.924 288.353 363.392 287.782 366.927C287.181 367.98 286.369 369.031 285.46 370.217C284.625 371.318 284.209 372.608 283.33 373.704C282.166 375.161 280.359 375.806 279.655 377.772C279.415 378.437 279.567 379.229 279.269 380.285C279.156 380.676 278.443 381.281 278.105 382.026C277.793 382.714 277.807 383.595 277.524 384.161C276.64 385.946 274.01 390.008 272.104 390.55C268.086 391.676 263.85 388.844 261.074 389.382C261.475 391.324 262.883 391.123 263.786 392.482C264.314 393.284 264.602 394.345 265.331 395.192C266.2 396.198 266.968 396.57 267.075 397.708C267.295 400.094 265.438 402.495 264.172 403.325C263.015 404.084 260.61 404.528 258.557 404.871C257.125 405.111 253.43 405.125 252.751 406.04C251.754 407.384 253.279 410.705 252.561 412.038C251.114 414.869 247.224 411.96 245.206 412.81C245.034 414.273 245.572 415.804 246.755 416.487C247.971 417.201 249.818 416.272 250.625 417.652C250.229 419.577 248.158 419.827 247.722 421.719C247.776 423.567 248.343 424.051 248.109 425.199C247.605 427.688 243.739 427.586 243.852 430.236C244.018 434.201 251.455 432.577 251.592 436.435C251.671 438.772 249.462 438.797 248.69 441.075C248.274 442.297 248.929 442.58 248.69 443.592C248.367 444.966 246.754 445.362 246.754 446.882C246.749 448.735 249.462 450.775 250.815 452.304C252.14 453.806 253.84 455.946 255.654 456.954C258.371 458.455 262.418 458.118 263.591 460.826C263.22 462.454 261.65 462.89 260.106 463.339C259.979 463.339 259.847 463.339 259.72 463.339C259.197 463.022 257.34 463.022 256.817 463.339C255.913 463.339 255.008 463.339 254.11 463.339C251.52 462.146 248.377 461.374 245.206 460.245C244.062 459.839 242.772 458.87 241.53 458.314C240.597 457.887 239.546 457.722 238.818 457.341C237.151 456.466 235.275 453.63 233.594 452.504C232.572 451.816 230.969 451.453 230.304 450.755C229.669 450.095 229.322 448.663 228.756 447.856C228.13 446.966 226.982 446.316 226.238 445.338C224.631 443.2 222.578 440.326 222.563 438.752C222.548 437.202 224.04 436.151 223.531 434.694C223.057 433.319 220.086 433.618 219.66 431.976C219.401 430.988 220.516 429.321 220.432 427.917C220.388 427.102 218.863 425.991 219.466 424.813C220.159 423.458 221.469 424.925 222.563 424.236C221.742 421.44 222.627 416.942 219.852 416.1C218.424 417.304 221.307 420.008 218.883 420.751C216.543 419.71 217.086 416.626 216.562 414.361C216.221 412.865 215.477 411.52 215.404 409.908C215.365 409.061 215.736 408.079 215.595 407.203C215.184 404.593 212.281 402.456 212.11 399.84C212.032 398.58 212.883 397.514 213.077 396.164C213.214 395.25 212.95 394.223 213.077 393.26C213.249 392.029 213.928 390.898 214.046 389.774C214.275 387.648 214.041 383.999 213.66 382.22C213.18 379.986 211.406 378.085 211.142 375.644C211.049 374.759 211.436 373.288 211.338 372.158C211.246 371.107 210.669 370.065 210.566 368.862C210.468 367.758 210.84 366.707 210.952 365.377C211.157 362.948 210.478 360.239 210.566 357.825C210.59 357.115 210.962 356.587 210.952 355.892C210.927 353.894 210.262 351.879 210.175 349.889C210.024 346.212 210.581 343.607 209.985 340.209C209.534 337.637 208.978 333.696 208.049 332.082C207.013 330.279 202.942 327.218 200.889 326.074C199.535 325.322 197.913 325.063 196.438 324.333C193.285 322.789 187.176 319.518 185.794 316.4C185.393 315.494 185.446 314.301 185.017 313.299C184.175 311.314 182.401 309.598 181.146 307.682C178.756 304.029 176.825 299.45 174.372 295.679C173.131 293.763 172.056 291.592 170.697 290.067C169.9 289.168 167.349 288.327 167.022 286.967C166.587 285.178 165.263 282.719 165.473 281.355C165.751 279.501 169.349 278.005 169.344 276.323C169.339 274.886 167.423 274.051 167.022 272.839C166.045 269.877 167.595 268.139 168.763 265.67C169.149 264.863 169.525 263.56 169.926 262.962C170.634 261.896 172.076 261.598 173.019 260.444C173.547 259.799 173.879 258.454 174.568 257.54C176.039 255.585 178.415 254.852 179.021 253.087C179.514 251.649 179.802 244.458 179.211 242.052C178.874 240.663 177.579 239.501 177.085 238.179C176.211 235.842 176.005 233.291 173.6 233.339C172.115 233.369 171.069 235.013 170.116 236.049C169.886 237.426 170.009 238.918 168.567 239.339C166.367 239.989 165.522 237.021 162.956 236.244C161.935 235.932 160.308 235.95 159.667 235.663C157.796 234.822 157.19 232.078 155.215 231.013C153.563 230.128 152.15 230.436 151.149 229.077C150.734 228.144 151.061 226.456 150.959 225.204C148.838 223.963 147.039 219.333 144.571 218.238C142.934 217.509 140.427 217.578 138.379 216.883C137.417 216.556 136.674 216.135 135.667 215.916C134.426 215.637 133.149 215.622 132.187 215.138C128.355 213.236 126.288 207.072 121.543 207.203C119.52 207.257 117.57 209.149 115.737 209.139C113.914 209.13 110.86 207.683 108.573 206.622C106.197 205.517 103.569 204.915 101.608 203.913C100.026 203.101 98.9263 201.62 97.5425 201.004C96.4828 200.534 94.933 200.452 94.0628 200.041C92.8265 199.454 91.5367 198.203 89.997 197.132C88.5355 196.12 86.9569 194.575 86.8984 193.265C86.835 191.749 88.2913 190.459 88.4483 189.001C88.9464 184.391 85.5501 181.076 83.4138 178.353C81.8312 176.329 79.9741 174.613 78.3854 172.74C78.4737 171.499 78.4737 171.273 78.3854 170.032C77.1828 168.863 76.1718 167.133 74.9008 165.382C73.7517 163.803 71.5136 162.121 71.226 160.351C70.869 158.176 72.0517 156.265 71.226 154.152C69.8479 150.647 64.9851 152.231 65.6104 156.865C65.787 158.142 67.5848 159.858 68.1274 161.124C68.6841 162.415 68.5773 164.024 69.095 165.578C69.5939 167.069 71.0943 168.355 71.6121 170.032C72.4328 172.682 72.4087 175.538 73.1608 177.194C73.8257 178.666 76.274 180.059 74.9012 181.839C73.0687 182.221 72.3641 180.388 71.2264 179.321C70.5905 178.73 68.2893 177.605 67.9373 176.227C67.6437 175.088 68.6607 173.553 68.3233 172.16C67.6588 169.427 62.1462 169.358 62.1262 166.547C62.1164 164.782 64.433 164.572 64.4526 162.865C64.4674 160.998 61.9065 159.419 61.3541 157.835C60.851 156.382 60.7677 154.07 60.582 152.026C60.4005 150.11 60.6356 147.89 60.191 146.408C59.7952 145.079 57.7959 143.25 56.5162 142.536C54.8196 141.593 53.4762 141.984 52.6456 140.601C51.9214 139.393 51.4482 136.871 51.2912 135.57C51.0123 133.243 51.2278 130.696 51.0957 128.211C50.9689 125.723 50.715 123.337 51.0957 120.663C52.0531 118.79 53.7984 117.866 54.7758 116.014C55.4554 114.724 55.5528 113.129 56.3204 111.756C57.7374 109.228 60.8258 106.891 62.9028 104.398C65.141 101.713 67.2037 99.1424 68.5135 96.0717C68.9826 94.9818 70.2437 92.5668 70.0622 91.2319C69.8082 89.3689 66.2999 87.8335 66.5776 85.619C66.7542 84.2452 68.7086 84.2652 69.2901 82.9103C69.5886 82.2115 69.8577 80.2609 69.8716 79.4243C69.9015 77.5572 68.9143 75.6111 69.2901 73.6166C69.6075 71.9148 72.1396 71.2258 70.84 69.3586C69.549 67.5103 67.2327 70.3553 65.8055 69.1623C64.4957 68.0623 66.0697 66.7326 66.1916 64.7084C66.2406 63.9016 65.7225 62.9824 65.8055 62.3867C65.9229 61.521 67.6093 60.0642 67.1599 59.4817C66.1138 58.1574 64.9406 54.7937 62.7073 53.674C59.8684 52.2466 56.794 53.2097 52.841 52.5105C50.4161 52.0847 49.2681 49.8165 47.0349 49.9974C45.6567 50.1046 44.865 51.6837 42.9687 52.5105C41.0917 53.3316 38.6388 53.0526 36.7765 53.4781C34.9293 53.9039 34.0399 55.1795 32.1285 55.0278C30.536 54.9058 30.5258 53.4686 28.6495 53.2878C27.9163 53.2146 26.5284 53.7423 25.3604 53.8695C22.369 54.1821 16.9689 54.3339 13.9386 53.674C11.1684 53.0726 9.45778 52.1922 6.39318 50.7698C4.09124 49.7037 -0.179804 48.3888 0.00586046 46.7024C0.122844 45.6167 4.05275 44.4679 5.61656 43.9937C8.1385 43.2266 9.6925 41.9846 11.6182 41.8619C12.3605 41.8181 13.3379 42.3225 14.3258 42.2541C15.3179 42.1805 16.5395 41.2666 17.8104 41.0899C20.5124 40.7139 24.3242 41.2269 24.0019 38.5726C21.9498 36.9485 13.5779 39.7746 13.3579 36.2501C13.2258 34.1179 16.5345 33.4731 18.9735 32.9597C21.1924 32.4905 24.5593 31.698 26.5189 31.7962C28.7284 31.9083 31.6356 34.3822 32.9062 31.6048C33.5217 29.6304 32.1534 27.9727 31.7424 26.3739C33.3855 24.1051 36.4097 24.389 38.7113 24.0522C41.3408 23.6653 43.4869 23.1968 46.0662 22.1156C48.3292 21.1669 50.7335 20.5315 53.4173 20.1793C56.0464 19.8376 58.5974 18.8451 60.9677 18.6296C62.9175 18.4529 64.7062 18.61 66.5776 18.2434C68.2346 17.921 69.9848 17.0017 71.8075 17.084C73.0249 17.1384 74.0657 18.0278 75.2869 18.2434C76.4348 18.4438 77.7503 18.1849 78.9669 18.4389C79.9006 18.6345 80.7409 19.2649 81.6749 19.4069C83.141 19.627 84.7139 19.2015 86.1267 19.4069C87.4264 19.5922 88.5317 20.4043 89.8019 20.5659C92.7831 20.9521 96.1941 20.4088 99.0927 20.9562C100.192 21.1616 101.184 21.7044 102.381 21.9245C103.515 22.1299 104.761 21.8947 105.866 22.1152C107.405 22.4229 108.691 23.8801 110.318 24.0518C113.314 24.3644 116.676 22.7505 119.799 22.5014C122.062 22.3258 124.393 22.5946 126.768 22.1152C128.928 21.6795 131.02 20.8441 132.96 20.761C134.015 20.7165 134.9 21.0838 135.863 20.9558C136.865 20.8196 138.067 19.6168 139.152 19.7923C140.593 20.0226 140.339 21.846 141.864 22.3104C143.551 21.4353 145.231 22.3689 147.088 22.3104C148.897 22.2469 150.514 21.416 152.508 21.7286C156.031 22.2813 160.953 25.7325 163.729 23.8597C164.428 23.3859 164.261 22.5693 164.892 21.3424C165.748 19.6749 167.433 17.7145 167.023 15.3384C163.142 15.4018 159.438 17.2988 155.02 17.4695C150.559 14.6732 156.213 12.9382 159.472 11.6622C162.16 10.6059 164.286 8.26338 167.605 7.78997C170.312 7.39887 173.288 8.38645 176.504 8.75754C178.38 8.97311 180.258 8.62579 181.342 8.94819C183.243 9.52088 184.22 11.4028 185.794 11.8524C186.473 12.048 187.587 12.028 188.502 12.2435C190.241 12.6444 191.8 13.5637 193.535 12.2435C194.898 12.4878 195.059 13.9397 196.438 14.1802C197.723 13.4856 198.715 11.7207 200.695 11.276C201.555 11.0804 202.459 11.4221 203.402 11.276C204.981 11.0219 207.082 8.88477 208.05 10.8848C207.654 12.2824 205.542 12.4927 204.369 13.5977C203.329 14.5803 201.725 16.8345 201.857 17.8568C202.088 19.704 204.854 18.9905 204.951 21.3428C204.54 22.6966 202.967 22.0903 201.662 22.6966C200.469 23.2496 200.025 24.3931 198.759 24.6332C195.241 25.2973 192.322 23.7479 189.279 23.8601C189.137 25.1802 190.784 25.9485 191.599 26.3732C194.361 27.8255 196.609 27.625 200.499 27.5374C202.493 27.4929 204.785 28.1332 206.501 26.9549C207.585 26.2124 207.527 24.5747 208.436 23.6645C209.53 22.5746 212.052 21.4647 213.66 21.729C214.54 21.8758 215.775 22.9219 215.79 23.6645C215.82 25.4245 213.303 24.8624 213.274 26.7643C214.911 27.747 219.236 25.6891 219.466 24.0515C219.632 22.8581 218.058 22.1684 218.112 20.9558C218.205 18.9271 220.96 18.9614 220.629 16.8889C219.3 15.842 217.912 17.1135 216.562 16.8889C214.661 16.5706 212.951 14.2927 212.11 12.8204C212.951 11.7792 214.711 12.4731 215.981 12.6297C217.404 10.6595 220.052 9.89236 223.723 9.52994C225.027 9.40272 226.767 8.88477 227.402 10.1117C227.715 11.9457 224.69 13.0454 225.271 15.1478C227.876 15.7978 228.731 12.2824 230.886 10.8845C231.835 10.2684 233.193 9.858 234.561 9.3393C235.754 8.88477 237.069 7.76015 238.046 7.78959C239.116 7.81829 239.307 8.69865 240.367 9.14337C241.321 9.54429 242.567 8.86929 242.884 10.1113C240.641 13.999 232.279 11.7637 230.109 15.7242C230.593 18.3793 228.799 20.9113 230.304 22.6958C231.38 23.9673 233.804 23.102 234.366 24.4369C235.123 26.2207 232.02 26.2207 232.822 28.3091C234.87 29.536 237.308 27.1399 239.205 26.1822C241.238 25.1508 243.809 23.9329 244.042 21.5331C243.022 19.5677 239.21 21.0883 238.628 19.0199C238.311 17.8953 239.796 15.3773 240.172 14.9522C242.191 12.6882 249.238 9.46652 254.301 9.9169C255.264 10.0041 256.236 10.5908 257.204 10.6942C260.532 11.0359 264.461 9.25587 267.076 10.6942C269.177 9.46652 271.699 10.8603 274.622 10.4979C276.875 11.8279 276.254 14.6585 279.656 15.9202C280.58 16.2626 281.733 16.0183 282.945 16.3063C283.844 16.5215 284.817 17.5774 285.848 18.052C287.314 18.7172 288.438 18.565 288.751 19.5964C289.059 20.6085 287.685 21.2639 287.783 22.31C288.619 22.999 287.92 24.036 288.365 25.019C289.2 26.8126 291.307 26.6812 293.393 27.5371C294.86 28.1377 297.987 29.9807 297.846 31.4092C297.753 32.367 294.908 34.0485 293.975 34.509C293.315 34.8307 290.051 36.4102 288.946 36.249C287.119 35.9802 286.405 32.2787 283.913 32.3768C282.828 32.4206 281.807 33.0756 281.782 34.5086C281.743 37.0508 284.626 37.1482 284.685 39.3484C284.763 41.9786 283.248 42.1594 281.01 43.7971C279.407 43.147 278.058 42.233 275.977 42.0571C274.74 43.5283 278.01 44.056 276.944 45.9293C273.836 46.5884 271.465 45.0489 268.626 44.1882C267.737 43.9194 266.456 44.0266 265.723 43.6064C264.624 42.971 264.301 41.0884 263.397 40.1208C262.352 38.9962 260.264 37.4023 258.558 37.4121C256.169 37.417 252.708 40.39 250.817 37.6028C252.128 33.1688 258.334 36.4593 262.429 34.8948C263.954 34.3123 264.477 32.6996 265.723 31.9899C268.225 30.5625 272.292 30.362 271.915 27.5371C271.724 26.1138 269.735 26.1335 268.626 25.4052C267.111 24.4177 265.953 20.9317 263.788 20.7607C262.673 20.6723 261.872 21.6165 260.689 21.7286C258.187 21.963 255.402 20.721 253.144 21.7286C252.093 22.33 252.802 23.293 251.981 24.4373C251.306 25.3754 249.713 25.6393 249.078 26.5684C248.335 27.6583 248.487 29.0132 247.528 29.8588C245.94 31.2669 242.578 31.4915 240.564 32.1813C239.665 32.4889 238.531 33.5452 237.661 33.5403C236.064 33.5305 235.379 31.3896 233.595 32.1813C233.44 34.2538 235.785 35.0953 237.271 36.0531C238.879 37.0893 240.57 38.1215 241.142 39.9252C239.568 43.2693 237.056 39.7497 234.563 39.7346C231.817 39.715 227.809 44.9666 225.469 40.7026C226.05 38.4435 228.538 38.092 229.144 35.8628C226.412 36.3271 224.032 38.63 220.822 39.3488C219.472 39.6466 218.158 39.5742 216.95 39.9252C214.634 40.6052 213.017 42.3164 210.568 43.2206C209.61 43.5728 208.467 43.4648 207.47 43.7974C205.134 44.5796 202.334 45.9783 199.924 47.2834C197.461 48.6183 194.68 50.0219 193.151 51.3511C192.324 52.0646 190.174 54.6076 190.248 55.4143C190.345 56.5677 192.516 56.9489 192.568 58.1272C192.52 58.8407 191.313 60.3813 192.182 61.4176C192.974 62.3614 194.562 61.5984 196.244 61.8038C199.201 62.1711 201.135 64.6152 203.403 65.8723C205.119 66.8202 207.665 67.9498 209.601 68.194C212.259 68.5266 215.235 67.4167 215.597 69.5489C215.949 71.5966 213.094 72.3301 212.889 73.6163C214.321 75.508 211.916 76.4125 211.922 78.0702C211.927 79.4142 213.573 81.429 215.015 81.5509C216.966 81.7166 219.82 79.6293 220.631 77.6787C221.594 75.3562 221.183 72.2078 222.952 70.5161C231.969 70.7653 239.597 66.4189 239.016 57.1592C238.957 56.2449 238.439 55.067 238.63 54.0594C238.913 52.5637 241.484 51.307 241.142 49.4152C243.668 48.6379 243.561 44.5845 246.175 43.993C248.365 43.4996 250.842 45.5431 253.721 45.3468C254.659 45.2841 255.876 44.4426 256.819 44.5747C258.711 44.8386 259.85 47.1713 261.272 48.2521C262.527 49.2152 263.852 48.9075 264.175 50.1876C263.799 52.3584 262.273 52.412 262.43 54.4456C262.572 56.2203 264.414 57.5654 265.334 57.741C266.746 58.0049 268.763 57.2468 270.171 56.5775C272.761 55.3502 274.981 51.6543 277.141 52.1232C278.846 52.4954 280.18 57.9165 280.429 59.8679C280.698 61.9601 280.146 63.5589 280.238 65.4846C280.488 68.7508 284.597 68.4179 286.622 70.1295C287.232 70.6479 287.472 71.9722 287.98 72.6468C288.962 73.9572 290.15 73.9572 290.301 75.3555C290.662 78.6995 287.271 78.9834 287.589 82.7136C286.889 84.1607 285.125 84.0735 285.267 86.0041C285.492 89.0601 289.881 86.7176 291.073 89.1039C291.718 90.3851 290.966 91.3384 290.492 93.1663C291.992 94.9561 291.982 97.8113 289.333 97.8154C287.724 97.8169 287.28 96.0868 285.652 95.6858ZM76.4507 90.6547C77.3646 89.7166 76.0639 87.7316 74.7057 88.5236C74.5736 89.2322 74.9548 90.9435 76.4507 90.6547ZM211.534 108.27C210.728 107.483 208.098 107.708 206.305 107.883C205.039 108.011 203.534 108.28 203.402 109.238C205.416 110.162 210.903 110.827 211.534 108.27ZM201.467 104.98C202.987 103.782 202.312 101.338 200.695 100.913C200.06 100.746 199.215 101.381 198.178 101.303C197.083 101.22 195.989 100.218 195.084 100.14C193.541 100.008 191.972 100.771 191.404 101.495C191.346 102.653 192.255 102.839 192.181 104.012C190.3 105.357 191.297 109.854 193.149 110.016C195.114 110.188 196.13 105.044 198.759 104.594C199.712 104.427 200.201 105.136 201.467 104.98ZM198.759 112.724C196.008 111.746 193.467 113.389 191.214 113.692C189.87 113.873 187.422 113.418 187.729 115.433C187.978 117.075 190.515 116.479 191.986 116.014C195.045 115.046 196.975 114.215 198.759 112.724ZM190.246 98.0083C194.102 96.3654 189.484 91.3055 187.729 90.845C184.592 90.0242 180.13 93.1478 176.504 94.1361C174.46 94.693 172.516 94.7424 172.052 96.4628C173.884 99.4942 177.506 95.798 180.179 96.2672C181.533 96.5066 182.324 98.3594 183.663 98.5897C184.577 98.7467 189.879 98.1642 190.246 98.0083ZM187.534 101.108C186.732 100.164 182.392 101.22 181.146 102.076C180.29 102.668 179.709 104.11 178.825 105.176C177.911 106.276 176.889 107.126 176.117 108.08C175.419 108.94 171.499 114.596 174.568 115.242C175.878 115.515 178.57 112.798 178.825 111.756C179.699 108.206 181.298 105.674 184.049 104.012C185.643 103.049 187.275 103.171 187.534 101.108ZM163.342 79.4247C165.503 79.3462 166.964 72.962 163.342 73.8077C160.919 74.3747 160.332 79.5327 163.342 79.4247ZM152.894 224.629C152.992 224.34 153.178 224.139 153.28 223.851C152.694 221.925 150.837 224.555 152.894 224.629ZM71.0305 62.5819C71.0743 62.2157 70.8101 62.1522 70.84 61.8046C70.2486 61.8004 69.5641 61.6924 69.6762 62.3871C69.955 62.9443 70.7034 63.0424 71.0305 62.5819ZM274.431 32.1824C275.384 32.2998 275.921 31.997 275.785 31.0242C274.924 30.4179 273.669 31.2141 274.431 32.1824ZM252.176 13.213C251.925 12.9442 251.262 12.9442 251.012 13.213C251.012 13.4671 251.012 13.726 251.012 13.985C251.834 14.1617 251.984 13.6675 252.176 13.213ZM178.635 28.12C179.28 27.7039 180.267 27.1414 179.793 26.1833C177.656 25.181 174.045 25.944 170.893 25.6015C169.105 23.0737 166.114 22.6826 165.86 26.765C169.461 29.6893 174.915 25.4015 178.635 28.12ZM143.99 48.0615C145.09 47.6802 146.614 47.8757 146.892 46.7028C145.988 45.9791 145.061 45.0013 143.99 44.9617C142.587 44.913 141.913 46.155 140.505 46.8983C138.868 47.7636 136.6 47.9743 136.443 49.4164C139.44 50.003 142.138 48.698 143.99 48.0615ZM143.022 34.1183C144.259 33.908 145.529 34.4656 146.316 33.3459C145.392 29.083 139.499 31.6882 136.058 31.991C135.335 33.204 134.367 34.1727 134.123 35.8639C136.791 36.5382 140.011 34.6313 143.022 34.1183ZM201.081 231.987C202.611 231.738 202.165 228.222 200.309 229.078C198.906 229.728 199.634 232.217 201.081 231.987Z" fill="#6087A4"/>
<path d="M70.8416 61.8046C70.8117 62.1519 71.0759 62.2157 71.0321 62.5819C70.7046 63.0424 69.9566 62.9443 69.6778 62.3871C69.5653 61.6924 70.2502 61.8004 70.8416 61.8046Z" fill="#6087A4"/>
<path d="M65.0347 73.2312C64.6241 74.4966 63.5048 75.0546 62.3222 75.5529C61.9512 75.2743 61.6286 74.9515 61.355 74.5853C61.4384 72.7468 64.0528 71.3927 65.0347 73.2312Z" fill="#6087A4"/>
</g>
</svg>
