<svg width="90" height="46" viewBox="0 0 90 46" fill="none" xmlns="http://www.w3.org/2000/svg">
<path d="M12.2856 38.5069L8.89295 46H8.24439L6.15007 41.7436L4.041 46H3.39185L0 38.5069H2.09432L3.81964 42.6744L5.81035 38.3444H6.47425L8.49505 42.586L10.1911 38.5069H12.2856Z" fill="#41699F"/>
<path d="M19.2773 41.4775V45.8225H17.4484V45.1131C16.9323 45.66 16.1656 46 15.2216 46C13.6286 46 12.6994 45.0542 12.6994 43.8125C12.6994 42.4825 13.7764 41.6843 15.4577 41.6843H17.2866V41.3591C17.2866 40.5612 16.8293 40.0732 15.9295 40.0732C15.148 40.0732 14.6019 40.4426 13.9976 41.0783L12.9648 39.8518C13.8204 38.8319 14.8673 38.3444 16.1509 38.3444C18.0091 38.3444 19.2773 39.3938 19.2773 41.4775ZM17.2864 43.0883V42.9995H15.7229C15.0737 42.9995 14.7055 43.2507 14.7055 43.7384C14.7055 44.2412 15.1333 44.5365 15.7524 44.5365C16.5932 44.5367 17.2864 43.9455 17.2864 43.0883Z" fill="#41699F"/>
<path d="M25.8852 44.1525V45.8225C25.4722 45.9259 25.0296 46 24.5136 46C22.7145 46 21.5935 45.1279 21.5935 43.2509V40.1916H20.4431V38.5069H21.5935V36.6594H23.5843V38.5069H25.6493V40.1916H23.5843V43.0738C23.5843 43.9161 24.0268 44.2116 24.9413 44.2116C25.1773 44.2114 25.5014 44.1819 25.8852 44.1525Z" fill="#41699F"/>
<path d="M33.8937 42.8371H28.7757C29.0117 43.7682 29.7638 44.2855 30.826 44.2855C31.6222 44.2855 32.2714 44.0048 32.861 43.5465L33.6873 44.906C32.861 45.6007 31.8876 46 30.7667 46C28.4516 46 26.7697 44.3296 26.7697 42.1721C26.7697 40.0145 28.4362 38.3444 30.5901 38.3444C32.6398 38.3444 34.0262 39.8518 34.0262 41.7436C34.0262 42.1573 33.9527 42.586 33.8937 42.8371ZM28.7757 41.4331H32.0941C32.0793 40.5021 31.3566 39.955 30.5158 39.955C29.6756 39.955 28.9971 40.5167 28.7757 41.4331Z" fill="#41699F"/>
<path d="M40.0585 38.5069V40.2657H39.5277C38.3772 40.2657 37.5662 40.8569 37.5662 42.1721V45.8225H35.5747V38.5069H37.4037V39.379C37.8902 38.7581 38.6129 38.418 39.4091 38.418C39.6755 38.418 39.8668 38.4478 40.0585 38.5069Z" fill="#41699F"/>
<path d="M48.3633 41.9355V44.566H46.4608V41.9355H43.9239V40.2507H46.4608V37.6495H48.3633V40.2507H50.8702V41.9355H48.3633Z" fill="#41699F"/>
<path d="M66.7106 41.2854V45.8225H64.7191V41.5661C64.7191 40.6942 64.2031 40.1473 63.4216 40.1473C62.6254 40.1473 62.0793 40.709 62.0793 41.5218V45.8223H60.0886V41.5659C60.0886 40.694 59.5725 40.1471 58.7904 40.1471C57.9942 40.1471 57.4487 40.694 57.4487 41.5659V45.8223H55.4572V38.5067H57.2861V39.1572C57.7727 38.6544 58.4806 38.3444 59.3511 38.3444C60.3392 38.3444 61.0619 38.7285 61.519 39.3938C62.0645 38.7581 62.9201 38.3444 63.9522 38.3444C65.6931 38.3444 66.7106 39.5268 66.7106 41.2854Z" fill="#41699F"/>
<path d="M76.0326 42.1573C76.0326 44.3296 74.2624 45.985 72.0946 45.985C69.9268 45.985 68.2007 44.3298 68.2007 42.1573C68.2007 39.9996 69.9267 38.3444 72.1093 38.3444C74.2624 38.3444 76.0326 39.9996 76.0326 42.1573ZM70.2214 42.1721C70.2214 43.3249 71.0029 44.1525 72.1093 44.1525C73.1863 44.1525 73.9972 43.3101 73.9972 42.1721C73.9972 41.0192 73.1863 40.1621 72.1093 40.1621C71.0029 40.1621 70.2214 41.0192 70.2214 42.1721Z" fill="#41699F"/>
<path d="M82.0651 38.5069V40.2657H81.5342C80.3838 40.2657 79.5728 40.8569 79.5728 42.1721V45.8225H77.5815V38.5069H79.4104V39.379C79.897 38.7581 80.6197 38.418 81.4159 38.418C81.6821 38.418 81.8732 38.4478 82.0651 38.5069Z" fill="#41699F"/>
<path d="M89.8677 42.8371H84.7497C84.9856 43.7682 85.7378 44.2855 86.8 44.2855C87.5962 44.2855 88.2454 44.0048 88.835 43.5465L89.6613 44.906C88.835 45.6007 87.8616 46 86.7406 46C84.4255 46 82.7437 44.3296 82.7437 42.1721C82.7437 40.0145 84.4102 38.3444 86.5641 38.3444C88.6138 38.3444 90.0002 39.8518 90.0002 41.7436C90 42.1573 89.9265 42.586 89.8677 42.8371ZM84.7497 41.4331H88.0681C88.0533 40.5021 87.3306 39.955 86.4898 39.955C85.6495 39.955 84.9709 40.5167 84.7497 41.4331Z" fill="#41699F"/>
<path d="M89.9316 30.8842H0.243408V32.6711H89.9316V30.8842Z" fill="#DDB0C8"/>
<path fill-rule="evenodd" clip-rule="evenodd" d="M89.9674 5.3385H77.2534L74.9472 11.964H78.5968V25.8963H86.056V11.964H89.9674V5.3385Z" fill="#41699F"/>
<path fill-rule="evenodd" clip-rule="evenodd" d="M68.79 5.3385L65.6093 14.3956L63.1973 5.3385H57.5784L55.1662 14.3956L51.9857 5.3385H44.4054L51.5616 25.8963H57.7363L60.3878 15.8924L63.0394 25.8963H69.2141L76.3703 5.3385H68.79Z" fill="#41699F"/>
<path fill-rule="evenodd" clip-rule="evenodd" d="M42.3185 15.3434C43.8445 14.3867 44.8601 12.6886 44.8601 10.7519C44.8601 7.7622 42.4414 5.3385 39.4579 5.3385H28.2834V25.8851V25.8963H40.5545C43.5443 25.8963 45.9679 23.4677 45.9679 20.4717C45.9679 18.0949 44.4419 16.0766 42.3185 15.3434ZM34.5387 10.4375H36.5355C37.131 10.4375 37.6136 11.056 37.6136 11.8188C37.6136 12.5818 37.131 13.2002 36.5355 13.2002H34.5387V10.4375ZM37.5898 21.3854H34.5585V18.3797H37.5898C38.2547 18.3797 38.7938 19.0527 38.7938 19.8826C38.7938 20.7126 38.2549 21.3854 37.5898 21.3854Z" fill="#41699F"/>
<path fill-rule="evenodd" clip-rule="evenodd" d="M18.7671 8.16724L18.7583 8.15759L4.25865 0L4.25826 2.58583L0.188354 0.42493V16.798C0.188354 22.1023 4.47942 26.4024 9.77293 26.4024C10.8485 26.4024 11.8814 26.2221 12.8465 25.8949C13.2483 25.9467 13.6569 25.9765 14.0728 25.9765C19.3233 25.9765 23.5796 21.7114 23.5796 16.4501C23.5796 12.9002 21.6404 9.80589 18.7671 8.16724ZM9.77293 24.9416C5.28467 24.9416 1.6461 21.2955 1.6461 16.798C1.6461 16.6542 1.6461 2.81336 1.6461 2.81336L6.17839 5.33871V16.798C6.17839 18.7873 7.78772 20.3998 9.77273 20.3998C11.7577 20.3998 13.3671 18.7871 13.3671 16.798C13.3671 15.1602 12.2752 13.7802 10.7819 13.3428V8.71924C14.7936 9.21765 17.8994 12.6433 17.8994 16.798C17.8998 21.2955 14.2612 24.9416 9.77293 24.9416Z" fill="#41699F"/>
</svg>
